<?xml version="1.0" encoding="UTF-8" standalone="no"?>
<!DOCTYPE svg PUBLIC "-//W3C//DTD SVG 1.1//EN" "http://www.w3.org/Graphics/SVG/1.1/DTD/svg11.dtd">
<svg xmlns="http://www.w3.org/2000/svg" version="1.1" viewBox="0.00 0.00 2127.00 739.00">
<g stroke-width="2.00" fill="none" stroke-linecap="butt">
<path stroke="#8686ad" d="
  M 523.16 256.34
  C 515.00 248.18 501.11 242.93 489.85 239.91
  Q 458.41 231.47 427.72 239.20
  Q 384.16 250.16 364.24 289.79
  C 350.53 317.07 348.49 349.00 355.21 378.60
  C 363.85 416.65 390.63 444.67 429.06 452.39
  C 458.12 458.22 491.12 455.24 516.71 439.63
  C 524.65 434.78 529.47 427.69 529.05 418.22
  C 528.53 406.51 517.87 395.71 505.99 396.96
  Q 502.16 397.36 494.59 401.28
  Q 486.80 405.31 480.77 407.27
  Q 467.70 411.52 452.50 410.55
  C 423.47 408.70 405.99 387.86 402.87 359.92
  C 400.80 341.35 402.29 319.96 412.77 303.97
  Q 426.80 282.55 454.83 281.43
  C 469.08 280.85 482.41 283.85 494.96 290.40
  C 502.98 294.60 512.26 295.55 519.38 289.97
  C 529.09 282.34 532.38 265.55 523.16 256.34"
/>
<path stroke="#8686ad" d="
  M 1383.90 373.26
  L 1359.93 348.00
  A 0.62 0.62 0.0 0 1 1360.09 347.03
  Q 1371.82 340.92 1380.67 331.49
  Q 1395.48 315.73 1394.43 294.21
  Q 1393.49 274.95 1380.12 261.78
  C 1365.59 247.46 1343.53 243.04 1324.38 246.45
  Q 1307.61 249.44 1296.81 258.95
  Q 1285.44 268.96 1281.78 285.25
  C 1276.63 308.18 1285.67 326.98 1301.62 342.93
  A 0.54 0.53 -36.4 0 1 1301.49 343.78
  C 1275.32 357.30 1260.65 381.39 1265.85 411.03
  Q 1269.31 430.70 1285.78 442.47
  C 1300.24 452.81 1318.81 455.60 1336.26 454.73
  Q 1364.40 453.31 1384.89 434.65
  A 0.72 0.72 0.0 0 1 1385.91 434.71
  C 1393.32 443.28 1400.89 453.40 1413.09 454.08
  C 1429.89 455.03 1440.58 436.82 1430.76 422.83
  A 2.92 1.91 83.4 0 0 1430.46 422.47
  L 1411.32 403.21
  A 1.06 1.05 -53.0 0 1 1411.15 401.95
  Q 1419.90 386.47 1424.42 370.73
  C 1427.13 361.28 1424.32 350.63 1414.53 346.94
  C 1405.01 343.35 1394.32 347.08 1389.63 356.33
  Q 1388.38 358.79 1387.16 364.64
  Q 1386.32 368.71 1384.68 373.10
  A 0.47 0.47 0.0 0 1 1383.90 373.26"
/>
<path stroke="#8686ad" d="
  M 1505.30 345.59
  Q 1505.72 345.92 1506.01 346.49
  Q 1530.80 395.12 1537.67 409.44
  Q 1541.03 416.45 1543.83 418.90
  C 1553.27 427.17 1569.14 424.94 1575.15 413.42
  Q 1581.87 400.51 1607.76 349.54
  Q 1608.77 347.55 1609.68 345.32
  A 0.34 0.34 0.0 0 1 1610.34 345.45
  Q 1610.35 390.50 1610.37 425.02
  C 1610.38 433.96 1610.07 439.09 1614.13 445.17
  C 1620.18 454.23 1634.37 456.23 1643.75 451.42
  Q 1650.87 447.77 1653.70 440.57
  Q 1655.18 436.78 1655.18 425.76
  Q 1655.11 336.62 1655.17 276.25
  C 1655.18 267.52 1655.49 261.98 1651.84 255.82
  C 1644.26 243.02 1625.99 242.71 1615.28 251.64
  Q 1612.82 253.69 1608.79 261.23
  Q 1600.27 277.19 1570.18 332.52
  C 1566.06 340.09 1562.65 347.23 1558.72 354.52
  A 0.48 0.48 0.0 0 1 1557.87 354.51
  C 1541.69 322.48 1525.61 291.01 1508.07 260.00
  Q 1504.71 254.08 1502.96 252.50
  C 1490.83 241.54 1468.63 242.74 1462.50 259.36
  Q 1461.06 263.25 1461.08 272.86
  Q 1461.29 374.31 1461.10 425.32
  Q 1461.05 436.56 1462.60 440.49
  C 1465.70 448.32 1472.65 453.28 1481.10 453.81
  C 1491.05 454.44 1499.98 450.11 1503.56 440.85
  Q 1505.27 436.43 1505.23 424.92
  Q 1505.10 388.04 1505.19 352.00
  Q 1505.19 349.39 1504.80 345.87
  A 0.31 0.31 0.0 0 1 1505.30 345.59"
/>
<path stroke="#8686ad" d="
  M 1726.05 367.59
  Q 1738.16 367.49 1787.50 367.62
  Q 1794.60 367.63 1799.77 363.54
  C 1806.62 358.12 1807.93 350.17 1806.30 341.96
  C 1805.02 335.48 1800.28 331.34 1794.28 329.32
  Q 1791.50 328.38 1785.61 328.39
  Q 1740.67 328.42 1726.07 328.40
  A 0.37 0.37 0.0 0 1 1725.70 328.03
  L 1725.70 285.96
  A 0.61 0.61 0.0 0 1 1726.30 285.35
  Q 1780.25 285.21 1787.67 285.36
  Q 1798.23 285.58 1802.12 283.85
  C 1809.06 280.78 1813.30 274.75 1813.60 267.14
  C 1813.96 257.96 1810.48 250.41 1802.09 247.00
  Q 1798.60 245.59 1790.74 245.59
  Q 1716.29 245.62 1701.02 245.65
  C 1688.33 245.68 1680.10 255.05 1680.12 267.52
  Q 1680.25 361.16 1680.13 427.74
  Q 1680.11 436.87 1681.52 440.62
  Q 1684.49 448.49 1692.34 451.69
  Q 1696.07 453.21 1707.99 453.17
  Q 1757.35 452.97 1792.14 453.11
  C 1798.13 453.13 1801.30 452.41 1805.89 449.27
  C 1816.08 442.28 1816.39 422.52 1805.98 415.49
  Q 1800.29 411.65 1794.24 411.66
  Q 1755.51 411.72 1726.08 411.71
  A 0.44 0.44 0.0 0 1 1725.64 411.27
  L 1725.64 368.01
  A 0.42 0.42 0.0 0 1 1726.05 367.59"
/>
<path stroke="#b69fd2" d="
  M 1911.32 372.00
  Q 1901.86 401.83 1888.90 441.93
  C 1887.43 446.47 1892.34 449.53 1896.12 446.88
  Q 1926.89 425.34 1956.13 405.43
  A 1.50 1.49 45.2 0 1 1957.83 405.44
  L 2018.03 447.42
  A 0.60 0.42 -10.3 0 0 2018.14 447.47
  C 2021.44 448.73 2025.81 446.69 2024.68 442.55
  C 2021.83 432.16 2016.68 417.54 2013.83 407.80
  Q 2011.01 398.13 2002.95 372.08
  A 0.87 0.86 -27.2 0 1 2003.26 371.12
  Q 2022.53 356.75 2059.56 328.45
  C 2061.27 327.14 2062.20 325.99 2061.65 323.93
  Q 2060.75 320.51 2057.28 320.36
  Q 2042.21 319.73 1985.68 317.15
  A 0.77 0.77 0.0 0 1 1984.98 316.63
  L 1961.46 248.17
  A 1.97 1.88 -76.2 0 0 1961.11 247.56
  C 1958.52 244.51 1953.62 245.66 1952.53 249.56
  Q 1950.32 257.46 1943.12 277.84
  Q 1938.80 290.06 1929.99 316.63
  A 0.83 0.82 -81.8 0 1 1929.24 317.20
  Q 1897.56 318.71 1858.68 320.37
  C 1855.41 320.51 1853.43 323.11 1854.16 326.15
  Q 1854.39 327.10 1856.48 328.77
  Q 1886.08 352.40 1910.98 370.95
  A 0.97 0.95 27.4 0 1 1911.32 372.00"
/>
<path stroke="#ff9f81" d="
  M 194.43 405.27
  Q 194.71 405.27 195.64 405.90
  Q 229.42 428.81 256.33 447.39
  A 1.99 1.91 67.2 0 0 257.00 447.68
  C 260.86 448.55 264.06 446.35 262.72 442.15
  Q 253.08 412.02 240.71 372.20
  A 0.79 0.79 0.0 0 1 240.99 371.34
  L 297.79 327.95
  A 0.66 0.52 -85.3 0 0 297.93 327.80
  Q 300.65 323.81 296.79 320.98
  A 2.11 2.11 0.0 0 0 295.65 320.58
  L 223.12 317.28
  A 0.96 0.95 -8.1 0 1 222.26 316.64
  L 198.67 248.76
  A 2.57 2.38 -74.4 0 0 198.34 248.12
  Q 196.76 245.92 194.50 245.92
  Q 192.23 245.92 190.65 248.11
  A 2.57 2.38 74.5 0 0 190.32 248.76
  L 166.67 316.62
  A 0.96 0.95 8.1 0 1 165.81 317.26
  L 93.28 320.49
  A 2.11 2.11 0.0 0 0 92.14 320.89
  Q 88.27 323.72 90.99 327.71
  A 0.66 0.52 85.4 0 0 91.13 327.86
  L 147.89 371.30
  A 0.79 0.79 0.0 0 1 148.17 372.16
  Q 135.77 411.97 126.10 442.09
  C 124.76 446.29 127.96 448.49 131.82 447.63
  A 1.99 1.91 -67.2 0 0 132.49 447.34
  Q 159.42 428.78 193.22 405.90
  Q 194.15 405.27 194.43 405.27"
/>
<path stroke="#8686ad" d="
  M 1057.4967 267.4722
  A 21.37 21.37 0.0 0 0 1035.9041 246.3272
  L 1031.3044 246.3754
  A 21.37 21.37 0.0 0 0 1010.1593 267.9680
  L 1010.2033 272.1678
  A 21.37 21.37 0.0 0 0 1031.7959 293.3128
  L 1036.3956 293.2646
  A 21.37 21.37 0.0 0 0 1057.5407 271.6720
  L 1057.4967 267.4722"
/>
<path stroke="#8686ad" d="
  M 910.53 396.32
  Q 931.80 420.02 950.14 441.08
  Q 956.04 447.86 957.20 448.78
  C 964.06 454.27 975.20 455.62 983.13 451.88
  C 994.85 446.34 998.20 432.63 991.72 421.80
  C 989.45 418.00 984.43 413.82 981.10 410.05
  Q 967.77 394.89 949.91 375.47
  A 0.52 0.52 0.0 0 1 949.92 374.74
  Q 971.57 353.01 980.85 344.51
  Q 985.90 339.88 987.50 336.47
  Q 991.55 327.79 986.97 319.01
  C 981.27 308.07 967.41 305.51 957.20 310.52
  Q 953.87 312.16 946.78 319.62
  Q 930.53 336.74 910.81 357.80
  A 0.35 0.35 0.0 0 1 910.20 357.56
  Q 910.20 350.25 910.20 270.00
  Q 910.20 261.39 906.77 256.01
  C 897.02 240.71 872.67 243.77 867.22 261.25
  Q 865.87 265.60 865.87 268.51
  Q 865.84 296.58 865.86 425.15
  Q 865.86 436.46 867.22 440.15
  Q 869.99 447.72 876.94 451.46
  C 883.04 454.76 892.25 454.62 898.45 451.63
  Q 905.48 448.25 908.50 440.96
  Q 910.37 436.46 910.30 427.54
  Q 910.12 404.62 910.22 396.44
  A 0.18 0.18 0.0 0 1 910.53 396.32"
/>
<path stroke="#8686ad" d="
  M 559.96 436.90
  C 575.09 450.79 596.58 456.27 616.72 454.88
  C 654.06 452.29 680.73 428.47 684.70 390.89
  C 687.26 366.59 680.66 341.74 662.56 325.12
  C 644.45 308.50 619.13 304.05 595.14 308.69
  C 558.04 315.85 536.58 344.46 537.20 381.89
  C 537.53 402.08 544.83 423.01 559.96 436.90"
/>
<path stroke="#8686ad" d="
  M 825.05 325.12
  C 809.93 311.25 788.48 305.77 768.37 307.17
  C 731.07 309.75 704.43 333.54 700.47 371.07
  C 697.91 395.33 704.50 420.15 722.59 436.75
  C 740.66 453.35 765.96 457.79 789.91 453.17
  C 826.97 446.01 848.39 417.44 847.78 380.06
  C 847.45 359.90 840.16 338.99 825.05 325.12"
/>
<path stroke="#8686ad" d="
  M 1117.59 394.26
  Q 1147.45 394.07 1186.57 394.26
  Q 1192.99 394.29 1195.78 393.12
  C 1202.53 390.28 1205.78 383.68 1206.00 376.49
  C 1206.38 364.02 1203.62 350.82 1197.86 339.93
  C 1186.80 319.00 1165.70 306.99 1141.99 306.93
  C 1123.86 306.88 1106.72 313.08 1093.80 325.42
  C 1077.71 340.79 1071.16 365.20 1072.65 387.36
  C 1074.58 415.92 1086.70 440.34 1115.16 450.42
  Q 1128.13 455.02 1144.00 454.84
  C 1161.27 454.65 1178.31 451.55 1192.49 443.29
  Q 1203.08 437.12 1201.81 425.03
  C 1200.79 415.28 1194.57 408.27 1184.62 409.14
  C 1179.24 409.61 1175.25 411.80 1170.14 414.25
  C 1158.59 419.80 1140.60 421.41 1128.70 413.53
  Q 1118.60 406.83 1117.24 394.65
  A 0.35 0.35 0.0 0 1 1117.59 394.26"
/>
<path stroke="#8686ad" d="
  M 1055.5697 329.4111
  A 21.11 21.11 0.0 0 0 1034.4229 308.3380
  L 1032.0229 308.3422
  A 21.11 21.11 0.0 0 0 1010.9498 329.4890
  L 1011.1303 432.8689
  A 21.11 21.11 0.0 0 0 1032.2771 453.9420
  L 1034.6771 453.9378
  A 21.11 21.11 0.0 0 0 1055.7502 432.7910
  L 1055.5697 329.4111"
/>
<path stroke="#8686ad" d="
  M 1336.09 323.53
  Q 1336.16 323.54 1336.29 323.46
  Q 1342.93 319.24 1348.37 313.68
  C 1358.94 302.89 1356.01 283.56 1338.56 282.51
  C 1321.12 281.46 1315.89 300.29 1325.08 312.28
  Q 1329.81 318.45 1335.90 323.43
  Q 1336.02 323.53 1336.09 323.53"
/>
<path stroke="#8686ad" d="
  M 1361.80 407.89
  A 0.43 0.42 -40.2 0 0 1361.86 407.26
  L 1325.97 369.45
  A 0.62 0.62 0.0 0 0 1325.17 369.35
  Q 1317.89 373.94 1314.78 377.25
  Q 1304.16 388.57 1308.61 403.84
  C 1311.46 413.60 1321.54 418.45 1331.02 418.84
  C 1343.34 419.34 1352.36 415.07 1361.80 407.89"
/>
<path stroke="#8686ad" d="
  M 583.69 380.79
  C 583.68 397.99 591.46 415.19 611.09 415.21
  C 630.72 415.22 638.53 398.03 638.54 380.83
  C 638.56 363.63 630.78 346.43 611.14 346.41
  C 591.51 346.40 583.70 363.59 583.69 380.79"
/>
<path stroke="#8686ad" d="
  M 746.95 380.59
  C 746.78 397.74 753.95 415.06 773.76 415.26
  C 793.56 415.46 801.08 398.28 801.25 381.13
  C 801.42 363.98 794.25 346.66 774.45 346.46
  C 754.64 346.26 747.12 363.44 746.95 380.59"
/>
<path stroke="#8686ad" d="
  M 1116.99 365.04
  A 0.33 0.32 -85.5 0 0 1117.31 365.42
  L 1164.82 365.42
  A 0.50 0.50 0.0 0 0 1165.31 364.82
  C 1164.69 361.89 1164.59 359.12 1163.44 356.27
  Q 1158.88 344.93 1147.47 342.46
  C 1131.55 339.02 1119.44 349.98 1116.99 365.04"
/>
</g>
<path fill="#ffffff" fill-opacity="0" d="
  M 2127.00 0.00
  L 2127.00 739.00
  L 0.00 739.00
  L 0.00 0.00
  L 2127.00 0.00
  Z
  M 523.16 256.34
  C 515.00 248.18 501.11 242.93 489.85 239.91
  Q 458.41 231.47 427.72 239.20
  Q 384.16 250.16 364.24 289.79
  C 350.53 317.07 348.49 349.00 355.21 378.60
  C 363.85 416.65 390.63 444.67 429.06 452.39
  C 458.12 458.22 491.12 455.24 516.71 439.63
  C 524.65 434.78 529.47 427.69 529.05 418.22
  C 528.53 406.51 517.87 395.71 505.99 396.96
  Q 502.16 397.36 494.59 401.28
  Q 486.80 405.31 480.77 407.27
  Q 467.70 411.52 452.50 410.55
  C 423.47 408.70 405.99 387.86 402.87 359.92
  C 400.80 341.35 402.29 319.96 412.77 303.97
  Q 426.80 282.55 454.83 281.43
  C 469.08 280.85 482.41 283.85 494.96 290.40
  C 502.98 294.60 512.26 295.55 519.38 289.97
  C 529.09 282.34 532.38 265.55 523.16 256.34
  Z
  M 1383.90 373.26
  L 1359.93 348.00
  A 0.62 0.62 0.0 0 1 1360.09 347.03
  Q 1371.82 340.92 1380.67 331.49
  Q 1395.48 315.73 1394.43 294.21
  Q 1393.49 274.95 1380.12 261.78
  C 1365.59 247.46 1343.53 243.04 1324.38 246.45
  Q 1307.61 249.44 1296.81 258.95
  Q 1285.44 268.96 1281.78 285.25
  C 1276.63 308.18 1285.67 326.98 1301.62 342.93
  A 0.54 0.53 -36.4 0 1 1301.49 343.78
  C 1275.32 357.30 1260.65 381.39 1265.85 411.03
  Q 1269.31 430.70 1285.78 442.47
  C 1300.24 452.81 1318.81 455.60 1336.26 454.73
  Q 1364.40 453.31 1384.89 434.65
  A 0.72 0.72 0.0 0 1 1385.91 434.71
  C 1393.32 443.28 1400.89 453.40 1413.09 454.08
  C 1429.89 455.03 1440.58 436.82 1430.76 422.83
  A 2.92 1.91 83.4 0 0 1430.46 422.47
  L 1411.32 403.21
  A 1.06 1.05 -53.0 0 1 1411.15 401.95
  Q 1419.90 386.47 1424.42 370.73
  C 1427.13 361.28 1424.32 350.63 1414.53 346.94
  C 1405.01 343.35 1394.32 347.08 1389.63 356.33
  Q 1388.38 358.79 1387.16 364.64
  Q 1386.32 368.71 1384.68 373.10
  A 0.47 0.47 0.0 0 1 1383.90 373.26
  Z
  M 1505.30 345.59
  Q 1505.72 345.92 1506.01 346.49
  Q 1530.80 395.12 1537.67 409.44
  Q 1541.03 416.45 1543.83 418.90
  C 1553.27 427.17 1569.14 424.94 1575.15 413.42
  Q 1581.87 400.51 1607.76 349.54
  Q 1608.77 347.55 1609.68 345.32
  A 0.34 0.34 0.0 0 1 1610.34 345.45
  Q 1610.35 390.50 1610.37 425.02
  C 1610.38 433.96 1610.07 439.09 1614.13 445.17
  C 1620.18 454.23 1634.37 456.23 1643.75 451.42
  Q 1650.87 447.77 1653.70 440.57
  Q 1655.18 436.78 1655.18 425.76
  Q 1655.11 336.62 1655.17 276.25
  C 1655.18 267.52 1655.49 261.98 1651.84 255.82
  C 1644.26 243.02 1625.99 242.71 1615.28 251.64
  Q 1612.82 253.69 1608.79 261.23
  Q 1600.27 277.19 1570.18 332.52
  C 1566.06 340.09 1562.65 347.23 1558.72 354.52
  A 0.48 0.48 0.0 0 1 1557.87 354.51
  C 1541.69 322.48 1525.61 291.01 1508.07 260.00
  Q 1504.71 254.08 1502.96 252.50
  C 1490.83 241.54 1468.63 242.74 1462.50 259.36
  Q 1461.06 263.25 1461.08 272.86
  Q 1461.29 374.31 1461.10 425.32
  Q 1461.05 436.56 1462.60 440.49
  C 1465.70 448.32 1472.65 453.28 1481.10 453.81
  C 1491.05 454.44 1499.98 450.11 1503.56 440.85
  Q 1505.27 436.43 1505.23 424.92
  Q 1505.10 388.04 1505.19 352.00
  Q 1505.19 349.39 1504.80 345.87
  A 0.31 0.31 0.0 0 1 1505.30 345.59
  Z
  M 1726.05 367.59
  Q 1738.16 367.49 1787.50 367.62
  Q 1794.60 367.63 1799.77 363.54
  C 1806.62 358.12 1807.93 350.17 1806.30 341.96
  C 1805.02 335.48 1800.28 331.34 1794.28 329.32
  Q 1791.50 328.38 1785.61 328.39
  Q 1740.67 328.42 1726.07 328.40
  A 0.37 0.37 0.0 0 1 1725.70 328.03
  L 1725.70 285.96
  A 0.61 0.61 0.0 0 1 1726.30 285.35
  Q 1780.25 285.21 1787.67 285.36
  Q 1798.23 285.58 1802.12 283.85
  C 1809.06 280.78 1813.30 274.75 1813.60 267.14
  C 1813.96 257.96 1810.48 250.41 1802.09 247.00
  Q 1798.60 245.59 1790.74 245.59
  Q 1716.29 245.62 1701.02 245.65
  C 1688.33 245.68 1680.10 255.05 1680.12 267.52
  Q 1680.25 361.16 1680.13 427.74
  Q 1680.11 436.87 1681.52 440.62
  Q 1684.49 448.49 1692.34 451.69
  Q 1696.07 453.21 1707.99 453.17
  Q 1757.35 452.97 1792.14 453.11
  C 1798.13 453.13 1801.30 452.41 1805.89 449.27
  C 1816.08 442.28 1816.39 422.52 1805.98 415.49
  Q 1800.29 411.65 1794.24 411.66
  Q 1755.51 411.72 1726.08 411.71
  A 0.44 0.44 0.0 0 1 1725.64 411.27
  L 1725.64 368.01
  A 0.42 0.42 0.0 0 1 1726.05 367.59
  Z
  M 1911.32 372.00
  Q 1901.86 401.83 1888.90 441.93
  C 1887.43 446.47 1892.34 449.53 1896.12 446.88
  Q 1926.89 425.34 1956.13 405.43
  A 1.50 1.49 45.2 0 1 1957.83 405.44
  L 2018.03 447.42
  A 0.60 0.42 -10.3 0 0 2018.14 447.47
  C 2021.44 448.73 2025.81 446.69 2024.68 442.55
  C 2021.83 432.16 2016.68 417.54 2013.83 407.80
  Q 2011.01 398.13 2002.95 372.08
  A 0.87 0.86 -27.2 0 1 2003.26 371.12
  Q 2022.53 356.75 2059.56 328.45
  C 2061.27 327.14 2062.20 325.99 2061.65 323.93
  Q 2060.75 320.51 2057.28 320.36
  Q 2042.21 319.73 1985.68 317.15
  A 0.77 0.77 0.0 0 1 1984.98 316.63
  L 1961.46 248.17
  A 1.97 1.88 -76.2 0 0 1961.11 247.56
  C 1958.52 244.51 1953.62 245.66 1952.53 249.56
  Q 1950.32 257.46 1943.12 277.84
  Q 1938.80 290.06 1929.99 316.63
  A 0.83 0.82 -81.8 0 1 1929.24 317.20
  Q 1897.56 318.71 1858.68 320.37
  C 1855.41 320.51 1853.43 323.11 1854.16 326.15
  Q 1854.39 327.10 1856.48 328.77
  Q 1886.08 352.40 1910.98 370.95
  A 0.97 0.95 27.4 0 1 1911.32 372.00
  Z
  M 194.43 405.27
  Q 194.71 405.27 195.64 405.90
  Q 229.42 428.81 256.33 447.39
  A 1.99 1.91 67.2 0 0 257.00 447.68
  C 260.86 448.55 264.06 446.35 262.72 442.15
  Q 253.08 412.02 240.71 372.20
  A 0.79 0.79 0.0 0 1 240.99 371.34
  L 297.79 327.95
  A 0.66 0.52 -85.3 0 0 297.93 327.80
  Q 300.65 323.81 296.79 320.98
  A 2.11 2.11 0.0 0 0 295.65 320.58
  L 223.12 317.28
  A 0.96 0.95 -8.1 0 1 222.26 316.64
  L 198.67 248.76
  A 2.57 2.38 -74.4 0 0 198.34 248.12
  Q 196.76 245.92 194.50 245.92
  Q 192.23 245.92 190.65 248.11
  A 2.57 2.38 74.5 0 0 190.32 248.76
  L 166.67 316.62
  A 0.96 0.95 8.1 0 1 165.81 317.26
  L 93.28 320.49
  A 2.11 2.11 0.0 0 0 92.14 320.89
  Q 88.27 323.72 90.99 327.71
  A 0.66 0.52 85.4 0 0 91.13 327.86
  L 147.89 371.30
  A 0.79 0.79 0.0 0 1 148.17 372.16
  Q 135.77 411.97 126.10 442.09
  C 124.76 446.29 127.96 448.49 131.82 447.63
  A 1.99 1.91 -67.2 0 0 132.49 447.34
  Q 159.42 428.78 193.22 405.90
  Q 194.15 405.27 194.43 405.27
  Z
  M 1057.4967 267.4722
  A 21.37 21.37 0.0 0 0 1035.9041 246.3272
  L 1031.3044 246.3754
  A 21.37 21.37 0.0 0 0 1010.1593 267.9680
  L 1010.2033 272.1678
  A 21.37 21.37 0.0 0 0 1031.7959 293.3128
  L 1036.3956 293.2646
  A 21.37 21.37 0.0 0 0 1057.5407 271.6720
  L 1057.4967 267.4722
  Z
  M 910.53 396.32
  Q 931.80 420.02 950.14 441.08
  Q 956.04 447.86 957.20 448.78
  C 964.06 454.27 975.20 455.62 983.13 451.88
  C 994.85 446.34 998.20 432.63 991.72 421.80
  C 989.45 418.00 984.43 413.82 981.10 410.05
  Q 967.77 394.89 949.91 375.47
  A 0.52 0.52 0.0 0 1 949.92 374.74
  Q 971.57 353.01 980.85 344.51
  Q 985.90 339.88 987.50 336.47
  Q 991.55 327.79 986.97 319.01
  C 981.27 308.07 967.41 305.51 957.20 310.52
  Q 953.87 312.16 946.78 319.62
  Q 930.53 336.74 910.81 357.80
  A 0.35 0.35 0.0 0 1 910.20 357.56
  Q 910.20 350.25 910.20 270.00
  Q 910.20 261.39 906.77 256.01
  C 897.02 240.71 872.67 243.77 867.22 261.25
  Q 865.87 265.60 865.87 268.51
  Q 865.84 296.58 865.86 425.15
  Q 865.86 436.46 867.22 440.15
  Q 869.99 447.72 876.94 451.46
  C 883.04 454.76 892.25 454.62 898.45 451.63
  Q 905.48 448.25 908.50 440.96
  Q 910.37 436.46 910.30 427.54
  Q 910.12 404.62 910.22 396.44
  A 0.18 0.18 0.0 0 1 910.53 396.32
  Z
  M 559.96 436.90
  C 575.09 450.79 596.58 456.27 616.72 454.88
  C 654.06 452.29 680.73 428.47 684.70 390.89
  C 687.26 366.59 680.66 341.74 662.56 325.12
  C 644.45 308.50 619.13 304.05 595.14 308.69
  C 558.04 315.85 536.58 344.46 537.20 381.89
  C 537.53 402.08 544.83 423.01 559.96 436.90
  Z
  M 825.05 325.12
  C 809.93 311.25 788.48 305.77 768.37 307.17
  C 731.07 309.75 704.43 333.54 700.47 371.07
  C 697.91 395.33 704.50 420.15 722.59 436.75
  C 740.66 453.35 765.96 457.79 789.91 453.17
  C 826.97 446.01 848.39 417.44 847.78 380.06
  C 847.45 359.90 840.16 338.99 825.05 325.12
  Z
  M 1117.59 394.26
  Q 1147.45 394.07 1186.57 394.26
  Q 1192.99 394.29 1195.78 393.12
  C 1202.53 390.28 1205.78 383.68 1206.00 376.49
  C 1206.38 364.02 1203.62 350.82 1197.86 339.93
  C 1186.80 319.00 1165.70 306.99 1141.99 306.93
  C 1123.86 306.88 1106.72 313.08 1093.80 325.42
  C 1077.71 340.79 1071.16 365.20 1072.65 387.36
  C 1074.58 415.92 1086.70 440.34 1115.16 450.42
  Q 1128.13 455.02 1144.00 454.84
  C 1161.27 454.65 1178.31 451.55 1192.49 443.29
  Q 1203.08 437.12 1201.81 425.03
  C 1200.79 415.28 1194.57 408.27 1184.62 409.14
  C 1179.24 409.61 1175.25 411.80 1170.14 414.25
  C 1158.59 419.80 1140.60 421.41 1128.70 413.53
  Q 1118.60 406.83 1117.24 394.65
  A 0.35 0.35 0.0 0 1 1117.59 394.26
  Z
  M 1055.5697 329.4111
  A 21.11 21.11 0.0 0 0 1034.4229 308.3380
  L 1032.0229 308.3422
  A 21.11 21.11 0.0 0 0 1010.9498 329.4890
  L 1011.1303 432.8689
  A 21.11 21.11 0.0 0 0 1032.2771 453.9420
  L 1034.6771 453.9378
  A 21.11 21.11 0.0 0 0 1055.7502 432.7910
  L 1055.5697 329.4111
  Z"
/>
<path fill="#0d0d5a" d="
  M 523.16 256.34
  C 532.38 265.55 529.09 282.34 519.38 289.97
  C 512.26 295.55 502.98 294.60 494.96 290.40
  C 482.41 283.85 469.08 280.85 454.83 281.43
  Q 426.80 282.55 412.77 303.97
  C 402.29 319.96 400.80 341.35 402.87 359.92
  C 405.99 387.86 423.47 408.70 452.50 410.55
  Q 467.70 411.52 480.77 407.27
  Q 486.80 405.31 494.59 401.28
  Q 502.16 397.36 505.99 396.96
  C 517.87 395.71 528.53 406.51 529.05 418.22
  C 529.47 427.69 524.65 434.78 516.71 439.63
  C 491.12 455.24 458.12 458.22 429.06 452.39
  C 390.63 444.67 363.85 416.65 355.21 378.60
  C 348.49 349.00 350.53 317.07 364.24 289.79
  Q 384.16 250.16 427.72 239.20
  Q 458.41 231.47 489.85 239.91
  C 501.11 242.93 515.00 248.18 523.16 256.34
  Z"
/>
<path fill="#0d0d5a" d="
  M 1383.90 373.26
  A 0.47 0.47 0.0 0 0 1384.68 373.10
  Q 1386.32 368.71 1387.16 364.64
  Q 1388.38 358.79 1389.63 356.33
  C 1394.32 347.08 1405.01 343.35 1414.53 346.94
  C 1424.32 350.63 1427.13 361.28 1424.42 370.73
  Q 1419.90 386.47 1411.15 401.95
  A 1.06 1.05 -53.0 0 0 1411.32 403.21
  L 1430.46 422.47
  A 2.92 1.91 83.4 0 1 1430.76 422.83
  C 1440.58 436.82 1429.89 455.03 1413.09 454.08
  C 1400.89 453.40 1393.32 443.28 1385.91 434.71
  A 0.72 0.72 0.0 0 0 1384.89 434.65
  Q 1364.40 453.31 1336.26 454.73
  C 1318.81 455.60 1300.24 452.81 1285.78 442.47
  Q 1269.31 430.70 1265.85 411.03
  C 1260.65 381.39 1275.32 357.30 1301.49 343.78
  A 0.54 0.53 -36.4 0 0 1301.62 342.93
  C 1285.67 326.98 1276.63 308.18 1281.78 285.25
  Q 1285.44 268.96 1296.81 258.95
  Q 1307.61 249.44 1324.38 246.45
  C 1343.53 243.04 1365.59 247.46 1380.12 261.78
  Q 1393.49 274.95 1394.43 294.21
  Q 1395.48 315.73 1380.67 331.49
  Q 1371.82 340.92 1360.09 347.03
  A 0.62 0.62 0.0 0 0 1359.93 348.00
  L 1383.90 373.26
  Z
  M 1336.09 323.53
  Q 1336.16 323.54 1336.29 323.46
  Q 1342.93 319.24 1348.37 313.68
  C 1358.94 302.89 1356.01 283.56 1338.56 282.51
  C 1321.12 281.46 1315.89 300.29 1325.08 312.28
  Q 1329.81 318.45 1335.90 323.43
  Q 1336.02 323.53 1336.09 323.53
  Z
  M 1361.80 407.89
  A 0.43 0.42 -40.2 0 0 1361.86 407.26
  L 1325.97 369.45
  A 0.62 0.62 0.0 0 0 1325.17 369.35
  Q 1317.89 373.94 1314.78 377.25
  Q 1304.16 388.57 1308.61 403.84
  C 1311.46 413.60 1321.54 418.45 1331.02 418.84
  C 1343.34 419.34 1352.36 415.07 1361.80 407.89
  Z"
/>
<path fill="#0d0d5a" d="
  M 1505.30 345.59
  A 0.31 0.31 0.0 0 0 1504.80 345.87
  Q 1505.19 349.39 1505.19 352.00
  Q 1505.10 388.04 1505.23 424.92
  Q 1505.27 436.43 1503.56 440.85
  C 1499.98 450.11 1491.05 454.44 1481.10 453.81
  C 1472.65 453.28 1465.70 448.32 1462.60 440.49
  Q 1461.05 436.56 1461.10 425.32
  Q 1461.29 374.31 1461.08 272.86
  Q 1461.06 263.25 1462.50 259.36
  C 1468.63 242.74 1490.83 241.54 1502.96 252.50
  Q 1504.71 254.08 1508.07 260.00
  C 1525.61 291.01 1541.69 322.48 1557.87 354.51
  A 0.48 0.48 0.0 0 0 1558.72 354.52
  C 1562.65 347.23 1566.06 340.09 1570.18 332.52
  Q 1600.27 277.19 1608.79 261.23
  Q 1612.82 253.69 1615.28 251.64
  C 1625.99 242.71 1644.26 243.02 1651.84 255.82
  C 1655.49 261.98 1655.18 267.52 1655.17 276.25
  Q 1655.11 336.62 1655.18 425.76
  Q 1655.18 436.78 1653.70 440.57
  Q 1650.87 447.77 1643.75 451.42
  C 1634.37 456.23 1620.18 454.23 1614.13 445.17
  C 1610.07 439.09 1610.38 433.96 1610.37 425.02
  Q 1610.35 390.50 1610.34 345.45
  A 0.34 0.34 0.0 0 0 1609.68 345.32
  Q 1608.77 347.55 1607.76 349.54
  Q 1581.87 400.51 1575.15 413.42
  C 1569.14 424.94 1553.27 427.17 1543.83 418.90
  Q 1541.03 416.45 1537.67 409.44
  Q 1530.80 395.12 1506.01 346.49
  Q 1505.72 345.92 1505.30 345.59
  Z"
/>
<path fill="#0d0d5a" d="
  M 1726.05 367.59
  A 0.42 0.42 0.0 0 0 1725.64 368.01
  L 1725.64 411.27
  A 0.44 0.44 0.0 0 0 1726.08 411.71
  Q 1755.51 411.72 1794.24 411.66
  Q 1800.29 411.65 1805.98 415.49
  C 1816.39 422.52 1816.08 442.28 1805.89 449.27
  C 1801.30 452.41 1798.13 453.13 1792.14 453.11
  Q 1757.35 452.97 1707.99 453.17
  Q 1696.07 453.21 1692.34 451.69
  Q 1684.49 448.49 1681.52 440.62
  Q 1680.11 436.87 1680.13 427.74
  Q 1680.25 361.16 1680.12 267.52
  C 1680.10 255.05 1688.33 245.68 1701.02 245.65
  Q 1716.29 245.62 1790.74 245.59
  Q 1798.60 245.59 1802.09 247.00
  C 1810.48 250.41 1813.96 257.96 1813.60 267.14
  C 1813.30 274.75 1809.06 280.78 1802.12 283.85
  Q 1798.23 285.58 1787.67 285.36
  Q 1780.25 285.21 1726.30 285.35
  A 0.61 0.61 0.0 0 0 1725.70 285.96
  L 1725.70 328.03
  A 0.37 0.37 0.0 0 0 1726.07 328.40
  Q 1740.67 328.42 1785.61 328.39
  Q 1791.50 328.38 1794.28 329.32
  C 1800.28 331.34 1805.02 335.48 1806.30 341.96
  C 1807.93 350.17 1806.62 358.12 1799.77 363.54
  Q 1794.60 367.63 1787.50 367.62
  Q 1738.16 367.49 1726.05 367.59
  Z"
/>
<path fill="#6c3ea4" d="
  M 1911.32 372.00
  A 0.97 0.95 27.4 0 0 1910.98 370.95
  Q 1886.08 352.40 1856.48 328.77
  Q 1854.39 327.10 1854.16 326.15
  C 1853.43 323.11 1855.41 320.51 1858.68 320.37
  Q 1897.56 318.71 1929.24 317.20
  A 0.83 0.82 -81.8 0 0 1929.99 316.63
  Q 1938.80 290.06 1943.12 277.84
  Q 1950.32 257.46 1952.53 249.56
  C 1953.62 245.66 1958.52 244.51 1961.11 247.56
  A 1.97 1.88 -76.2 0 1 1961.46 248.17
  L 1984.98 316.63
  A 0.77 0.77 0.0 0 0 1985.68 317.15
  Q 2042.21 319.73 2057.28 320.36
  Q 2060.75 320.51 2061.65 323.93
  C 2062.20 325.99 2061.27 327.14 2059.56 328.45
  Q 2022.53 356.75 2003.26 371.12
  A 0.87 0.86 -27.2 0 0 2002.95 372.08
  Q 2011.01 398.13 2013.83 407.80
  C 2016.68 417.54 2021.83 432.16 2024.68 442.55
  C 2025.81 446.69 2021.44 448.73 2018.14 447.47
  A 0.60 0.42 -10.3 0 1 2018.03 447.42
  L 1957.83 405.44
  A 1.50 1.49 45.2 0 0 1956.13 405.43
  Q 1926.89 425.34 1896.12 446.88
  C 1892.34 449.53 1887.43 446.47 1888.90 441.93
  Q 1901.86 401.83 1911.32 372.00
  Z"
/>
<path fill="#ff3e02" d="
  M 194.50 245.92
  Q 196.76 245.92 198.34 248.12
  A 2.57 2.38 -74.4 0 1 198.67 248.76
  L 222.26 316.64
  A 0.96 0.95 -8.1 0 0 223.12 317.28
  L 295.65 320.58
  A 2.11 2.11 0.0 0 1 296.79 320.98
  Q 300.65 323.81 297.93 327.80
  A 0.66 0.52 -85.3 0 1 297.79 327.95
  L 240.99 371.34
  A 0.79 0.79 0.0 0 0 240.71 372.20
  Q 253.08 412.02 262.72 442.15
  C 264.06 446.35 260.86 448.55 257.00 447.68
  A 1.99 1.91 67.2 0 1 256.33 447.39
  Q 229.42 428.81 195.64 405.90
  Q 194.71 405.27 194.43 405.27
  Q 194.15 405.27 193.22 405.90
  Q 159.42 428.78 132.49 447.34
  A 1.99 1.91 -67.2 0 1 131.82 447.63
  C 127.96 448.49 124.76 446.29 126.10 442.09
  Q 135.77 411.97 148.17 372.16
  A 0.79 0.79 0.0 0 0 147.89 371.30
  L 91.13 327.86
  A 0.66 0.52 85.4 0 1 90.99 327.71
  Q 88.27 323.72 92.14 320.89
  A 2.11 2.11 0.0 0 1 93.28 320.49
  L 165.81 317.26
  A 0.96 0.95 8.1 0 0 166.67 316.62
  L 190.32 248.76
  A 2.57 2.38 74.5 0 1 190.65 248.11
  Q 192.23 245.92 194.50 245.92
  Z"
/>
<rect fill="#0d0d5a" x="-23.67" y="-23.47" transform="translate(1033.85,269.82) rotate(-0.6)" width="47.34" height="46.94" rx="21.37"/>
<path fill="#0d0d5a" d="
  M 910.53 396.32
  A 0.18 0.18 0.0 0 0 910.22 396.44
  Q 910.12 404.62 910.30 427.54
  Q 910.37 436.46 908.50 440.96
  Q 905.48 448.25 898.45 451.63
  C 892.25 454.62 883.04 454.76 876.94 451.46
  Q 869.99 447.72 867.22 440.15
  Q 865.86 436.46 865.86 425.15
  Q 865.84 296.58 865.87 268.51
  Q 865.87 265.60 867.22 261.25
  C 872.67 243.77 897.02 240.71 906.77 256.01
  Q 910.20 261.39 910.20 270.00
  Q 910.20 350.25 910.20 357.56
  A 0.35 0.35 0.0 0 0 910.81 357.80
  Q 930.53 336.74 946.78 319.62
  Q 953.87 312.16 957.20 310.52
  C 967.41 305.51 981.27 308.07 986.97 319.01
  Q 991.55 327.79 987.50 336.47
  Q 985.90 339.88 980.85 344.51
  Q 971.57 353.01 949.92 374.74
  A 0.52 0.52 0.0 0 0 949.91 375.47
  Q 967.77 394.89 981.10 410.05
  C 984.43 413.82 989.45 418.00 991.72 421.80
  C 998.20 432.63 994.85 446.34 983.13 451.88
  C 975.20 455.62 964.06 454.27 957.20 448.78
  Q 956.04 447.86 950.14 441.08
  Q 931.80 420.02 910.53 396.32
  Z"
/>
<path fill="#ffffff" d="
  M 1338.56 282.51
  C 1356.01 283.56 1358.94 302.89 1348.37 313.68
  Q 1342.93 319.24 1336.29 323.46
  Q 1336.16 323.54 1336.09 323.53
  Q 1336.02 323.53 1335.90 323.43
  Q 1329.81 318.45 1325.08 312.28
  C 1315.89 300.29 1321.12 281.46 1338.56 282.51
  Z"
/>
<path fill="#0d0d5a" d="
  M 662.56 325.12
  C 680.66 341.74 687.26 366.59 684.70 390.89
  C 680.73 428.47 654.06 452.29 616.72 454.88
  C 596.58 456.27 575.09 450.79 559.96 436.90
  C 544.83 423.01 537.53 402.08 537.20 381.89
  C 536.58 344.46 558.04 315.85 595.14 308.69
  C 619.13 304.05 644.45 308.50 662.56 325.12
  Z
  M 583.69 380.79
  C 583.68 397.99 591.46 415.19 611.09 415.21
  C 630.72 415.22 638.53 398.03 638.54 380.83
  C 638.56 363.63 630.78 346.43 611.14 346.41
  C 591.51 346.40 583.70 363.59 583.69 380.79
  Z"
/>
<path fill="#0d0d5a" d="
  M 825.05 325.12
  C 840.16 338.99 847.45 359.90 847.78 380.06
  C 848.39 417.44 826.97 446.01 789.91 453.17
  C 765.96 457.79 740.66 453.35 722.59 436.75
  C 704.50 420.15 697.91 395.33 700.47 371.07
  C 704.43 333.54 731.07 309.75 768.37 307.17
  C 788.48 305.77 809.93 311.25 825.05 325.12
  Z
  M 746.95 380.59
  C 746.78 397.74 753.95 415.06 773.76 415.26
  C 793.56 415.46 801.08 398.28 801.25 381.13
  C 801.42 363.98 794.25 346.66 774.45 346.46
  C 754.64 346.26 747.12 363.44 746.95 380.59
  Z"
/>
<path fill="#0d0d5a" d="
  M 1117.59 394.26
  A 0.35 0.35 0.0 0 0 1117.24 394.65
  Q 1118.60 406.83 1128.70 413.53
  C 1140.60 421.41 1158.59 419.80 1170.14 414.25
  C 1175.25 411.80 1179.24 409.61 1184.62 409.14
  C 1194.57 408.27 1200.79 415.28 1201.81 425.03
  Q 1203.08 437.12 1192.49 443.29
  C 1178.31 451.55 1161.27 454.65 1144.00 454.84
  Q 1128.13 455.02 1115.16 450.42
  C 1086.70 440.34 1074.58 415.92 1072.65 387.36
  C 1071.16 365.20 1077.71 340.79 1093.80 325.42
  C 1106.72 313.08 1123.86 306.88 1141.99 306.93
  C 1165.70 306.99 1186.80 319.00 1197.86 339.93
  C 1203.62 350.82 1206.38 364.02 1206.00 376.49
  C 1205.78 383.68 1202.53 390.28 1195.78 393.12
  Q 1192.99 394.29 1186.57 394.26
  Q 1147.45 394.07 1117.59 394.26
  Z
  M 1116.99 365.04
  A 0.33 0.32 -85.5 0 0 1117.31 365.42
  L 1164.82 365.42
  A 0.50 0.50 0.0 0 0 1165.31 364.82
  C 1164.69 361.89 1164.59 359.12 1163.44 356.27
  Q 1158.88 344.93 1147.47 342.46
  C 1131.55 339.02 1119.44 349.98 1116.99 365.04
  Z"
/>
<rect fill="#0d0d5a" x="-22.31" y="-72.80" transform="translate(1033.35,381.14) rotate(-0.1)" width="44.62" height="145.60" rx="21.11"/>
<path fill="#ffffff" d="
  M 1116.99 365.04
  C 1119.44 349.98 1131.55 339.02 1147.47 342.46
  Q 1158.88 344.93 1163.44 356.27
  C 1164.59 359.12 1164.69 361.89 1165.31 364.82
  A 0.50 0.50 0.0 0 1 1164.82 365.42
  L 1117.31 365.42
  A 0.33 0.32 -85.5 0 1 1116.99 365.04
  Z"
/>
<path fill="#ffffff" d="
  M 611.14 346.41
  C 630.78 346.43 638.56 363.63 638.54 380.83
  C 638.53 398.03 630.72 415.22 611.09 415.21
  C 591.46 415.19 583.68 397.99 583.69 380.79
  C 583.70 363.59 591.51 346.40 611.14 346.41
  Z"
/>
<path fill="#ffffff" d="
  M 774.45 346.46
  C 794.25 346.66 801.42 363.98 801.25 381.13
  C 801.08 398.28 793.56 415.46 773.76 415.26
  C 753.95 415.06 746.78 397.74 746.95 380.59
  C 747.12 363.44 754.64 346.26 774.45 346.46
  Z"
/>
<path fill="#ffffff" d="
  M 1361.80 407.89
  C 1352.36 415.07 1343.34 419.34 1331.02 418.84
  C 1321.54 418.45 1311.46 413.60 1308.61 403.84
  Q 1304.16 388.57 1314.78 377.25
  Q 1317.89 373.94 1325.17 369.35
  A 0.62 0.62 0.0 0 1 1325.97 369.45
  L 1361.86 407.26
  A 0.43 0.42 -40.2 0 1 1361.80 407.89
  Z"
/>
</svg>
