<?xml version="1.0" encoding="UTF-8" standalone="no"?>
<!DOCTYPE svg PUBLIC "-//W3C//DTD SVG 1.1//EN" "http://www.w3.org/Graphics/SVG/1.1/DTD/svg11.dtd">
<svg xmlns="http://www.w3.org/2000/svg" version="1.1" viewBox="0.00 0.00 1699.00 926.00">
<g stroke-width="2.00" fill="none" stroke-linecap="butt">
<path stroke="#8d8fae" d="
  M 1137.13 175.79
  C 1137.11 190.51 1143.59 201.01 1158.80 203.36
  Q 1162.87 203.99 1169.21 204.00
  Q 1175.55 204.01 1179.62 203.40
  C 1194.83 201.10 1201.35 190.63 1201.38 175.91
  C 1201.40 161.18 1194.92 150.69 1179.72 148.34
  Q 1175.65 147.71 1169.31 147.70
  Q 1162.97 147.69 1158.89 148.30
  C 1143.68 150.59 1137.16 161.07 1137.13 175.79"
/>
<path stroke="#8d8fae" d="
  M 532.75 339.54
  C 526.31 334.95 517.48 334.57 510.76 337.78
  Q 484.24 350.44 455.17 346.84
  Q 441.20 345.12 430.40 338.43
  C 417.74 330.59 409.90 315.94 407.12 301.37
  C 403.67 283.29 403.72 265.38 409.36 247.90
  C 414.71 231.33 426.33 218.82 442.70 213.36
  C 455.38 209.12 466.98 209.29 480.85 210.47
  C 489.40 211.20 500.23 214.91 507.53 218.44
  Q 515.01 222.06 518.19 222.44
  C 532.16 224.10 542.60 211.80 544.42 198.90
  Q 546.93 181.04 531.90 171.31
  Q 520.55 163.95 505.70 160.09
  Q 488.81 155.71 475.78 155.38
  C 469.58 155.23 456.21 154.82 447.74 155.71
  C 418.57 158.81 389.57 170.60 369.66 192.22
  C 348.15 215.57 338.25 248.46 338.89 280.76
  Q 339.24 298.59 343.13 315.08
  C 350.50 346.29 369.59 373.50 398.46 388.01
  Q 417.55 397.60 438.04 400.42
  Q 459.48 403.38 481.32 401.49
  C 498.23 400.02 517.02 395.14 531.60 386.04
  Q 547.93 375.85 543.84 356.11
  Q 541.74 345.96 532.75 339.54"
/>
<path stroke="#8d8fae" d="
  M 1010.84 299.58
  Q 1010.55 259.93 1010.77 190.52
  Q 1010.80 181.32 1010.02 177.25
  Q 1006.69 159.99 989.20 156.50
  Q 985.92 155.85 979.00 155.94
  C 968.41 156.09 957.76 161.49 953.56 171.52
  Q 950.75 178.24 950.75 183.51
  Q 950.77 291.14 950.73 361.00
  C 950.73 371.61 950.48 378.15 953.50 386.24
  C 958.79 400.41 975.25 403.72 988.72 401.31
  C 1004.55 398.48 1010.72 386.13 1010.74 371.25
  Q 1010.75 359.39 1010.72 327.59
  A 0.27 0.27 0.0 0 1 1011.20 327.42
  Q 1038.29 361.00 1059.42 388.06
  C 1067.67 398.63 1079.61 402.31 1093.27 401.70
  Q 1100.93 401.36 1108.27 397.03
  C 1115.34 392.86 1118.53 383.74 1117.69 376.04
  C 1116.94 369.12 1112.07 363.24 1107.03 356.98
  Q 1080.31 323.76 1070.22 311.34
  A 0.45 0.45 0.0 0 1 1070.23 310.77
  Q 1093.87 282.71 1107.44 266.43
  C 1114.27 258.24 1116.00 245.76 1109.00 237.38
  C 1102.26 229.30 1092.31 227.87 1082.54 228.51
  C 1071.98 229.20 1064.98 233.98 1058.07 242.32
  Q 1031.04 274.98 1011.18 299.70
  A 0.19 0.19 0.0 0 1 1010.84 299.58"
/>
<path stroke="#8d8fae" d="
  M 658.73 228.88
  C 630.14 225.27 598.69 229.27 576.10 248.42
  C 552.21 268.66 545.77 302.12 549.70 331.78
  Q 552.23 350.84 562.24 366.69
  C 573.55 384.61 593.12 395.52 613.39 399.63
  C 635.09 404.02 660.45 403.44 681.02 395.26
  Q 715.10 381.70 727.06 347.78
  C 731.70 334.61 732.81 320.68 731.86 306.50
  C 730.64 288.32 723.92 269.43 712.04 256.00
  C 698.60 240.80 678.91 231.42 658.73 228.88"
/>
<path stroke="#8d8fae" d="
  M 746.13 315.49
  C 746.19 329.07 748.15 341.63 753.27 353.72
  C 767.95 388.36 802.27 402.59 838.14 402.43
  C 874.02 402.27 908.22 387.74 922.58 352.97
  C 927.60 340.84 929.44 328.25 929.38 314.68
  C 929.32 301.10 927.37 288.54 922.24 276.44
  C 907.57 241.81 873.24 227.58 837.37 227.74
  C 801.50 227.90 767.30 242.43 752.93 277.19
  C 747.92 289.33 746.07 301.91 746.13 315.49"
/>
<path stroke="#8d8fae" d="
  M 1277.61 326.91
  Q 1297.24 326.73 1369.83 326.87
  Q 1380.12 326.89 1383.43 325.25
  Q 1389.92 322.01 1390.26 313.24
  Q 1391.20 288.87 1379.58 266.72
  C 1368.63 245.84 1348.69 232.37 1325.67 228.82
  C 1301.67 225.12 1275.41 229.38 1255.75 243.07
  C 1236.26 256.63 1224.52 277.01 1220.89 300.44
  C 1219.92 306.69 1219.96 316.41 1220.30 321.76
  C 1221.97 348.65 1234.76 373.11 1258.00 387.32
  Q 1277.71 399.38 1301.74 401.57
  C 1321.73 403.38 1341.43 401.91 1360.72 395.70
  Q 1365.94 394.02 1372.76 390.40
  Q 1386.86 382.94 1385.55 367.91
  C 1384.16 351.95 1370.64 345.96 1356.46 350.97
  C 1347.23 354.24 1338.47 357.53 1328.25 358.20
  Q 1318.42 358.85 1311.59 358.17
  C 1300.59 357.08 1289.71 352.51 1283.08 343.31
  C 1279.81 338.78 1278.16 332.81 1277.21 327.39
  A 0.41 0.41 0.0 0 1 1277.61 326.91"
/>
<path stroke="#8d8fae" d="
  M 1199.0741 255.4523
  A 27.26 27.26 0.0 0 0 1171.8617 228.1448
  L 1166.5617 228.1355
  A 27.26 27.26 0.0 0 0 1139.2542 255.3479
  L 1139.0459 374.6877
  A 27.26 27.26 0.0 0 0 1166.2583 401.9952
  L 1171.5583 402.0045
  A 27.26 27.26 0.0 0 0 1198.8658 374.7921
  L 1199.0741 255.4523"
/>
<path stroke="#df9d96" d="
  M 445.06 547.58
  L 349.27 547.58
  A 1.13 1.12 -9.4 0 1 348.20 546.82
  L 315.70 453.05
  A 0.59 0.59 0.0 0 0 314.58 453.05
  L 282.64 546.90
  A 0.98 0.97 -80.3 0 1 281.72 547.56
  L 185.74 547.56
  A 0.52 0.52 0.0 0 0 185.42 548.50
  L 262.51 607.20
  A 0.46 0.46 0.0 0 1 262.68 607.70
  L 232.89 701.27
  A 0.35 0.34 -87.4 0 0 233.29 701.71
  Q 233.54 701.66 233.77 701.50
  Q 269.48 677.30 305.27 652.57
  Q 310.57 648.91 314.61 646.04
  A 1.03 1.03 0.0 0 1 315.78 646.03
  L 396.84 701.48
  A 0.76 0.76 0.0 0 0 397.99 700.62
  L 367.86 607.67
  A 0.60 0.59 -27.8 0 1 368.07 607.00
  L 445.37 548.51
  A 0.52 0.52 0.0 0 0 445.06 547.58"
/>
<path stroke="#cec6e1" d="
  M 1290.00 547.46
  A 0.62 0.62 0.0 0 0 1289.62 548.58
  L 1366.10 606.81
  A 1.27 1.27 0.0 0 1 1366.54 608.20
  L 1337.03 700.92
  A 0.64 0.63 81.7 0 0 1337.99 701.64
  L 1419.57 645.97
  A 1.07 1.05 44.0 0 1 1420.75 645.96
  Q 1426.30 649.62 1431.91 654.07
  C 1436.13 657.42 1443.80 661.58 1449.47 665.78
  C 1459.78 673.42 1470.54 680.39 1480.89 687.64
  C 1487.61 692.35 1494.03 696.24 1500.50 700.76
  Q 1500.98 701.11 1502.20 701.63
  A 0.58 0.58 0.0 0 0 1502.98 700.92
  L 1472.79 607.81
  A 0.77 0.76 63.3 0 1 1473.06 606.97
  L 1550.21 548.60
  A 0.60 0.60 0.0 0 0 1549.85 547.53
  L 1454.36 547.53
  A 1.12 1.11 80.4 0 1 1453.31 546.78
  L 1420.91 453.29
  A 0.56 0.56 0.0 0 0 1419.87 453.25
  Q 1416.87 460.17 1414.72 466.93
  C 1411.45 477.19 1407.97 484.99 1404.94 494.63
  Q 1403.69 498.63 1397.56 516.02
  Q 1390.84 535.10 1387.16 546.47
  A 1.43 1.43 0.0 0 1 1385.80 547.46
  L 1290.00 547.46"
/>
<path stroke="#8d8fae" d="
  M 670.14 629.89
  L 637.18 597.60
  A 0.70 0.69 51.6 0 1 637.30 596.51
  Q 645.83 591.37 653.33 584.46
  C 666.93 571.94 674.75 557.13 675.13 538.51
  C 676.17 487.27 624.38 474.88 584.78 486.03
  C 555.23 494.34 536.86 519.26 541.17 550.29
  C 543.29 565.50 551.17 579.44 562.25 590.53
  A 0.43 0.43 0.0 0 1 562.14 591.22
  C 550.11 597.41 537.13 606.39 529.53 616.99
  C 519.53 630.96 515.43 646.74 517.65 663.72
  C 520.19 683.13 530.23 698.96 546.72 709.03
  C 552.09 712.31 558.34 715.52 564.75 717.49
  C 581.69 722.68 599.98 723.52 617.25 721.55
  Q 647.80 718.06 671.87 698.99
  A 0.74 0.73 -41.8 0 1 672.84 699.04
  Q 681.22 707.22 683.82 709.70
  C 689.89 715.49 695.32 719.96 702.55 721.41
  Q 707.83 722.46 715.24 721.91
  C 724.85 721.19 734.72 715.01 735.56 704.55
  Q 736.23 696.24 732.74 690.77
  Q 731.88 689.42 722.90 680.56
  Q 710.09 667.92 704.71 662.67
  A 0.33 0.33 0.0 0 1 704.66 662.27
  Q 721.43 633.91 727.19 600.65
  Q 728.85 591.03 727.32 585.88
  C 723.57 573.27 709.66 569.41 698.17 572.96
  Q 686.29 576.63 683.17 588.97
  C 678.85 606.04 676.29 616.63 670.68 629.78
  A 0.33 0.33 0.0 0 1 670.14 629.89"
/>
<path stroke="#8d8fae" d="
  M 959.50 591.30
  Q 959.72 591.79 959.73 592.50
  Q 959.73 596.24 959.71 695.25
  C 959.70 716.34 976.01 725.87 995.21 721.18
  C 1003.44 719.16 1009.18 713.02 1011.58 704.77
  Q 1013.17 699.30 1013.17 695.89
  Q 1013.22 592.00 1013.31 512.80
  C 1013.32 499.96 1010.05 488.47 996.53 484.22
  C 985.84 480.86 972.88 482.76 964.48 490.41
  Q 961.50 493.13 956.23 502.52
  Q 919.97 567.08 891.92 618.63
  A 0.46 0.46 0.0 0 1 891.11 618.64
  Q 858.13 558.44 825.43 500.27
  Q 814.99 481.68 795.15 482.63
  C 782.98 483.21 773.46 488.11 769.20 499.69
  Q 767.66 503.90 767.66 516.00
  Q 767.65 666.02 767.74 695.50
  C 767.79 713.78 780.08 724.02 798.01 722.22
  C 814.87 720.52 821.25 708.26 821.23 692.50
  Q 821.15 608.73 821.14 591.87
  A 0.30 0.30 0.0 0 1 821.70 591.72
  C 845.20 633.42 858.64 657.15 867.12 672.04
  C 871.18 679.17 875.54 683.70 882.55 685.69
  C 893.98 688.93 906.02 685.24 911.95 674.66
  Q 925.84 649.86 959.17 591.28
  A 0.19 0.18 48.0 0 1 959.50 591.30"
/>
<path stroke="#8d8fae" d="
  M 1106.77 671.27
  L 1106.74 623.09
  A 0.27 0.26 -90.0 0 1 1107.00 622.82
  Q 1127.09 622.83 1178.67 622.81
  Q 1190.24 622.81 1194.30 621.06
  C 1204.92 616.50 1207.23 605.96 1206.19 595.25
  C 1205.12 584.35 1197.38 577.00 1186.48 576.92
  Q 1168.12 576.78 1107.22 576.87
  A 0.47 0.46 0.0 0 1 1106.75 576.41
  L 1106.75 532.83
  A 0.34 0.34 0.0 0 1 1107.10 532.49
  Q 1139.95 532.52 1190.01 532.48
  Q 1196.98 532.47 1200.03 531.39
  C 1205.43 529.48 1210.62 525.91 1212.46 520.67
  Q 1215.63 511.67 1213.69 502.07
  C 1211.81 492.79 1205.08 487.28 1195.97 485.95
  Q 1194.40 485.72 1185.00 485.71
  Q 1079.89 485.65 1077.77 485.74
  C 1066.41 486.25 1056.25 492.34 1052.28 503.59
  Q 1050.56 508.49 1050.56 517.50
  Q 1050.55 629.43 1050.59 693.12
  Q 1050.60 697.56 1053.27 704.19
  C 1055.81 710.48 1061.12 714.70 1067.16 716.85
  C 1073.42 719.08 1078.29 718.85 1086.35 718.79
  Q 1089.06 718.77 1192.50 718.78
  C 1201.96 718.78 1210.68 713.56 1213.27 704.06
  Q 1215.49 695.92 1213.31 686.35
  Q 1211.80 679.78 1205.93 675.76
  C 1200.19 671.84 1195.24 672.01 1187.46 672.01
  Q 1108.42 671.99 1107.54 672.02
  A 0.75 0.75 0.0 0 1 1106.77 671.27"
/>
<path stroke="#8d8fae" d="
  M 671.97 315.13
  C 672.02 303.54 670.96 293.16 664.39 283.61
  C 659.10 275.91 649.70 272.06 640.50 272.02
  C 631.31 271.98 621.88 275.75 616.52 283.40
  C 609.87 292.90 608.72 303.27 608.67 314.86
  C 608.62 326.44 609.67 336.82 616.25 346.38
  C 621.54 354.07 630.93 357.93 640.13 357.97
  C 649.33 358.01 658.76 354.24 664.12 346.59
  C 670.77 337.09 671.92 326.72 671.97 315.13"
/>
<path stroke="#8d8fae" d="
  M 806.17 314.90
  C 806.15 326.52 807.24 336.92 813.86 346.47
  C 819.18 354.17 828.61 358.00 837.82 358.02
  C 847.04 358.03 856.48 354.23 861.83 346.55
  C 868.47 337.01 869.59 326.62 869.61 315.00
  C 869.63 303.39 868.54 292.99 861.92 283.43
  C 856.60 275.74 847.17 271.90 837.96 271.89
  C 828.74 271.87 819.30 275.68 813.95 283.36
  C 807.31 292.90 806.19 303.29 806.17 314.90"
/>
<path stroke="#8d8fae" d="
  M 1277.19 297.91
  A 0.48 0.48 0.0 0 0 1277.67 298.42
  L 1340.81 298.42
  A 0.38 0.37 -2.1 0 0 1341.19 298.02
  C 1340.54 287.42 1337.31 276.66 1328.29 270.84
  C 1313.53 261.34 1291.37 266.17 1282.31 281.68
  Q 1277.75 289.48 1277.19 297.91"
/>
<path stroke="#8d8fae" d="
  M 608.78 568.18
  C 616.95 563.52 625.43 557.72 629.05 549.37
  C 633.98 537.98 631.16 524.43 617.94 521.25
  C 604.04 517.90 591.91 526.64 592.69 541.31
  C 593.26 552.17 599.52 560.81 607.55 568.05
  A 1.06 1.04 -38.5 0 0 608.78 568.18"
/>
<path stroke="#8d8fae" d="
  M 640.32 668.16
  A 0.38 0.37 -41.7 0 0 640.36 667.59
  L 592.40 620.61
  A 1.08 1.08 0.0 0 0 591.05 620.48
  C 580.30 627.54 573.69 639.60 574.75 652.89
  C 576.52 675.11 597.41 680.79 616.58 678.08
  Q 629.87 676.20 640.32 668.16"
/>
</g>
<path fill="#ffffff" d="
  M 1699.00 0.00
  L 1699.00 926.00
  L 0.00 926.00
  L 0.00 0.00
  L 1699.00 0.00
  Z
  M 1137.13 175.79
  C 1137.11 190.51 1143.59 201.01 1158.80 203.36
  Q 1162.87 203.99 1169.21 204.00
  Q 1175.55 204.01 1179.62 203.40
  C 1194.83 201.10 1201.35 190.63 1201.38 175.91
  C 1201.40 161.18 1194.92 150.69 1179.72 148.34
  Q 1175.65 147.71 1169.31 147.70
  Q 1162.97 147.69 1158.89 148.30
  C 1143.68 150.59 1137.16 161.07 1137.13 175.79
  Z
  M 532.75 339.54
  C 526.31 334.95 517.48 334.57 510.76 337.78
  Q 484.24 350.44 455.17 346.84
  Q 441.20 345.12 430.40 338.43
  C 417.74 330.59 409.90 315.94 407.12 301.37
  C 403.67 283.29 403.72 265.38 409.36 247.90
  C 414.71 231.33 426.33 218.82 442.70 213.36
  C 455.38 209.12 466.98 209.29 480.85 210.47
  C 489.40 211.20 500.23 214.91 507.53 218.44
  Q 515.01 222.06 518.19 222.44
  C 532.16 224.10 542.60 211.80 544.42 198.90
  Q 546.93 181.04 531.90 171.31
  Q 520.55 163.95 505.70 160.09
  Q 488.81 155.71 475.78 155.38
  C 469.58 155.23 456.21 154.82 447.74 155.71
  C 418.57 158.81 389.57 170.60 369.66 192.22
  C 348.15 215.57 338.25 248.46 338.89 280.76
  Q 339.24 298.59 343.13 315.08
  C 350.50 346.29 369.59 373.50 398.46 388.01
  Q 417.55 397.60 438.04 400.42
  Q 459.48 403.38 481.32 401.49
  C 498.23 400.02 517.02 395.14 531.60 386.04
  Q 547.93 375.85 543.84 356.11
  Q 541.74 345.96 532.75 339.54
  Z
  M 1010.84 299.58
  Q 1010.55 259.93 1010.77 190.52
  Q 1010.80 181.32 1010.02 177.25
  Q 1006.69 159.99 989.20 156.50
  Q 985.92 155.85 979.00 155.94
  C 968.41 156.09 957.76 161.49 953.56 171.52
  Q 950.75 178.24 950.75 183.51
  Q 950.77 291.14 950.73 361.00
  C 950.73 371.61 950.48 378.15 953.50 386.24
  C 958.79 400.41 975.25 403.72 988.72 401.31
  C 1004.55 398.48 1010.72 386.13 1010.74 371.25
  Q 1010.75 359.39 1010.72 327.59
  A 0.27 0.27 0.0 0 1 1011.20 327.42
  Q 1038.29 361.00 1059.42 388.06
  C 1067.67 398.63 1079.61 402.31 1093.27 401.70
  Q 1100.93 401.36 1108.27 397.03
  C 1115.34 392.86 1118.53 383.74 1117.69 376.04
  C 1116.94 369.12 1112.07 363.24 1107.03 356.98
  Q 1080.31 323.76 1070.22 311.34
  A 0.45 0.45 0.0 0 1 1070.23 310.77
  Q 1093.87 282.71 1107.44 266.43
  C 1114.27 258.24 1116.00 245.76 1109.00 237.38
  C 1102.26 229.30 1092.31 227.87 1082.54 228.51
  C 1071.98 229.20 1064.98 233.98 1058.07 242.32
  Q 1031.04 274.98 1011.18 299.70
  A 0.19 0.19 0.0 0 1 1010.84 299.58
  Z
  M 658.73 228.88
  C 630.14 225.27 598.69 229.27 576.10 248.42
  C 552.21 268.66 545.77 302.12 549.70 331.78
  Q 552.23 350.84 562.24 366.69
  C 573.55 384.61 593.12 395.52 613.39 399.63
  C 635.09 404.02 660.45 403.44 681.02 395.26
  Q 715.10 381.70 727.06 347.78
  C 731.70 334.61 732.81 320.68 731.86 306.50
  C 730.64 288.32 723.92 269.43 712.04 256.00
  C 698.60 240.80 678.91 231.42 658.73 228.88
  Z
  M 746.13 315.49
  C 746.19 329.07 748.15 341.63 753.27 353.72
  C 767.95 388.36 802.27 402.59 838.14 402.43
  C 874.02 402.27 908.22 387.74 922.58 352.97
  C 927.60 340.84 929.44 328.25 929.38 314.68
  C 929.32 301.10 927.37 288.54 922.24 276.44
  C 907.57 241.81 873.24 227.58 837.37 227.74
  C 801.50 227.90 767.30 242.43 752.93 277.19
  C 747.92 289.33 746.07 301.91 746.13 315.49
  Z
  M 1277.61 326.91
  Q 1297.24 326.73 1369.83 326.87
  Q 1380.12 326.89 1383.43 325.25
  Q 1389.92 322.01 1390.26 313.24
  Q 1391.20 288.87 1379.58 266.72
  C 1368.63 245.84 1348.69 232.37 1325.67 228.82
  C 1301.67 225.12 1275.41 229.38 1255.75 243.07
  C 1236.26 256.63 1224.52 277.01 1220.89 300.44
  C 1219.92 306.69 1219.96 316.41 1220.30 321.76
  C 1221.97 348.65 1234.76 373.11 1258.00 387.32
  Q 1277.71 399.38 1301.74 401.57
  C 1321.73 403.38 1341.43 401.91 1360.72 395.70
  Q 1365.94 394.02 1372.76 390.40
  Q 1386.86 382.94 1385.55 367.91
  C 1384.16 351.95 1370.64 345.96 1356.46 350.97
  C 1347.23 354.24 1338.47 357.53 1328.25 358.20
  Q 1318.42 358.85 1311.59 358.17
  C 1300.59 357.08 1289.71 352.51 1283.08 343.31
  C 1279.81 338.78 1278.16 332.81 1277.21 327.39
  A 0.41 0.41 0.0 0 1 1277.61 326.91
  Z
  M 1199.0741 255.4523
  A 27.26 27.26 0.0 0 0 1171.8617 228.1448
  L 1166.5617 228.1355
  A 27.26 27.26 0.0 0 0 1139.2542 255.3479
  L 1139.0459 374.6877
  A 27.26 27.26 0.0 0 0 1166.2583 401.9952
  L 1171.5583 402.0045
  A 27.26 27.26 0.0 0 0 1198.8658 374.7921
  L 1199.0741 255.4523
  Z
  M 445.06 547.58
  L 349.27 547.58
  A 1.13 1.12 -9.4 0 1 348.20 546.82
  L 315.70 453.05
  A 0.59 0.59 0.0 0 0 314.58 453.05
  L 282.64 546.90
  A 0.98 0.97 -80.3 0 1 281.72 547.56
  L 185.74 547.56
  A 0.52 0.52 0.0 0 0 185.42 548.50
  L 262.51 607.20
  A 0.46 0.46 0.0 0 1 262.68 607.70
  L 232.89 701.27
  A 0.35 0.34 -87.4 0 0 233.29 701.71
  Q 233.54 701.66 233.77 701.50
  Q 269.48 677.30 305.27 652.57
  Q 310.57 648.91 314.61 646.04
  A 1.03 1.03 0.0 0 1 315.78 646.03
  L 396.84 701.48
  A 0.76 0.76 0.0 0 0 397.99 700.62
  L 367.86 607.67
  A 0.60 0.59 -27.8 0 1 368.07 607.00
  L 445.37 548.51
  A 0.52 0.52 0.0 0 0 445.06 547.58
  Z
  M 1290.00 547.46
  A 0.62 0.62 0.0 0 0 1289.62 548.58
  L 1366.10 606.81
  A 1.27 1.27 0.0 0 1 1366.54 608.20
  L 1337.03 700.92
  A 0.64 0.63 81.7 0 0 1337.99 701.64
  L 1419.57 645.97
  A 1.07 1.05 44.0 0 1 1420.75 645.96
  Q 1426.30 649.62 1431.91 654.07
  C 1436.13 657.42 1443.80 661.58 1449.47 665.78
  C 1459.78 673.42 1470.54 680.39 1480.89 687.64
  C 1487.61 692.35 1494.03 696.24 1500.50 700.76
  Q 1500.98 701.11 1502.20 701.63
  A 0.58 0.58 0.0 0 0 1502.98 700.92
  L 1472.79 607.81
  A 0.77 0.76 63.3 0 1 1473.06 606.97
  L 1550.21 548.60
  A 0.60 0.60 0.0 0 0 1549.85 547.53
  L 1454.36 547.53
  A 1.12 1.11 80.4 0 1 1453.31 546.78
  L 1420.91 453.29
  A 0.56 0.56 0.0 0 0 1419.87 453.25
  Q 1416.87 460.17 1414.72 466.93
  C 1411.45 477.19 1407.97 484.99 1404.94 494.63
  Q 1403.69 498.63 1397.56 516.02
  Q 1390.84 535.10 1387.16 546.47
  A 1.43 1.43 0.0 0 1 1385.80 547.46
  L 1290.00 547.46
  Z
  M 670.14 629.89
  L 637.18 597.60
  A 0.70 0.69 51.6 0 1 637.30 596.51
  Q 645.83 591.37 653.33 584.46
  C 666.93 571.94 674.75 557.13 675.13 538.51
  C 676.17 487.27 624.38 474.88 584.78 486.03
  C 555.23 494.34 536.86 519.26 541.17 550.29
  C 543.29 565.50 551.17 579.44 562.25 590.53
  A 0.43 0.43 0.0 0 1 562.14 591.22
  C 550.11 597.41 537.13 606.39 529.53 616.99
  C 519.53 630.96 515.43 646.74 517.65 663.72
  C 520.19 683.13 530.23 698.96 546.72 709.03
  C 552.09 712.31 558.34 715.52 564.75 717.49
  C 581.69 722.68 599.98 723.52 617.25 721.55
  Q 647.80 718.06 671.87 698.99
  A 0.74 0.73 -41.8 0 1 672.84 699.04
  Q 681.22 707.22 683.82 709.70
  C 689.89 715.49 695.32 719.96 702.55 721.41
  Q 707.83 722.46 715.24 721.91
  C 724.85 721.19 734.72 715.01 735.56 704.55
  Q 736.23 696.24 732.74 690.77
  Q 731.88 689.42 722.90 680.56
  Q 710.09 667.92 704.71 662.67
  A 0.33 0.33 0.0 0 1 704.66 662.27
  Q 721.43 633.91 727.19 600.65
  Q 728.85 591.03 727.32 585.88
  C 723.57 573.27 709.66 569.41 698.17 572.96
  Q 686.29 576.63 683.17 588.97
  C 678.85 606.04 676.29 616.63 670.68 629.78
  A 0.33 0.33 0.0 0 1 670.14 629.89
  Z
  M 959.50 591.30
  Q 959.72 591.79 959.73 592.50
  Q 959.73 596.24 959.71 695.25
  C 959.70 716.34 976.01 725.87 995.21 721.18
  C 1003.44 719.16 1009.18 713.02 1011.58 704.77
  Q 1013.17 699.30 1013.17 695.89
  Q 1013.22 592.00 1013.31 512.80
  C 1013.32 499.96 1010.05 488.47 996.53 484.22
  C 985.84 480.86 972.88 482.76 964.48 490.41
  Q 961.50 493.13 956.23 502.52
  Q 919.97 567.08 891.92 618.63
  A 0.46 0.46 0.0 0 1 891.11 618.64
  Q 858.13 558.44 825.43 500.27
  Q 814.99 481.68 795.15 482.63
  C 782.98 483.21 773.46 488.11 769.20 499.69
  Q 767.66 503.90 767.66 516.00
  Q 767.65 666.02 767.74 695.50
  C 767.79 713.78 780.08 724.02 798.01 722.22
  C 814.87 720.52 821.25 708.26 821.23 692.50
  Q 821.15 608.73 821.14 591.87
  A 0.30 0.30 0.0 0 1 821.70 591.72
  C 845.20 633.42 858.64 657.15 867.12 672.04
  C 871.18 679.17 875.54 683.70 882.55 685.69
  C 893.98 688.93 906.02 685.24 911.95 674.66
  Q 925.84 649.86 959.17 591.28
  A 0.19 0.18 48.0 0 1 959.50 591.30
  Z
  M 1106.77 671.27
  L 1106.74 623.09
  A 0.27 0.26 -90.0 0 1 1107.00 622.82
  Q 1127.09 622.83 1178.67 622.81
  Q 1190.24 622.81 1194.30 621.06
  C 1204.92 616.50 1207.23 605.96 1206.19 595.25
  C 1205.12 584.35 1197.38 577.00 1186.48 576.92
  Q 1168.12 576.78 1107.22 576.87
  A 0.47 0.46 0.0 0 1 1106.75 576.41
  L 1106.75 532.83
  A 0.34 0.34 0.0 0 1 1107.10 532.49
  Q 1139.95 532.52 1190.01 532.48
  Q 1196.98 532.47 1200.03 531.39
  C 1205.43 529.48 1210.62 525.91 1212.46 520.67
  Q 1215.63 511.67 1213.69 502.07
  C 1211.81 492.79 1205.08 487.28 1195.97 485.95
  Q 1194.40 485.72 1185.00 485.71
  Q 1079.89 485.65 1077.77 485.74
  C 1066.41 486.25 1056.25 492.34 1052.28 503.59
  Q 1050.56 508.49 1050.56 517.50
  Q 1050.55 629.43 1050.59 693.12
  Q 1050.60 697.56 1053.27 704.19
  C 1055.81 710.48 1061.12 714.70 1067.16 716.85
  C 1073.42 719.08 1078.29 718.85 1086.35 718.79
  Q 1089.06 718.77 1192.50 718.78
  C 1201.96 718.78 1210.68 713.56 1213.27 704.06
  Q 1215.49 695.92 1213.31 686.35
  Q 1211.80 679.78 1205.93 675.76
  C 1200.19 671.84 1195.24 672.01 1187.46 672.01
  Q 1108.42 671.99 1107.54 672.02
  A 0.75 0.75 0.0 0 1 1106.77 671.27
  Z"
/>
<path fill="#1a1f5c" d="
  M 1169.31 147.70
  Q 1175.65 147.71 1179.72 148.34
  C 1194.92 150.69 1201.40 161.18 1201.38 175.91
  C 1201.35 190.63 1194.83 201.10 1179.62 203.40
  Q 1175.55 204.01 1169.21 204.00
  Q 1162.87 203.99 1158.80 203.36
  C 1143.59 201.01 1137.11 190.51 1137.13 175.79
  C 1137.16 161.07 1143.68 150.59 1158.89 148.30
  Q 1162.97 147.69 1169.31 147.70
  Z"
/>
<path fill="#1a1f5c" d="
  M 532.75 339.54
  Q 541.74 345.96 543.84 356.11
  Q 547.93 375.85 531.60 386.04
  C 517.02 395.14 498.23 400.02 481.32 401.49
  Q 459.48 403.38 438.04 400.42
  Q 417.55 397.60 398.46 388.01
  C 369.59 373.50 350.50 346.29 343.13 315.08
  Q 339.24 298.59 338.89 280.76
  C 338.25 248.46 348.15 215.57 369.66 192.22
  C 389.57 170.60 418.57 158.81 447.74 155.71
  C 456.21 154.82 469.58 155.23 475.78 155.38
  Q 488.81 155.71 505.70 160.09
  Q 520.55 163.95 531.90 171.31
  Q 546.93 181.04 544.42 198.90
  C 542.60 211.80 532.16 224.10 518.19 222.44
  Q 515.01 222.06 507.53 218.44
  C 500.23 214.91 489.40 211.20 480.85 210.47
  C 466.98 209.29 455.38 209.12 442.70 213.36
  C 426.33 218.82 414.71 231.33 409.36 247.90
  C 403.72 265.38 403.67 283.29 407.12 301.37
  C 409.90 315.94 417.74 330.59 430.40 338.43
  Q 441.20 345.12 455.17 346.84
  Q 484.24 350.44 510.76 337.78
  C 517.48 334.57 526.31 334.95 532.75 339.54
  Z"
/>
<path fill="#1a1f5c" d="
  M 1010.84 299.58
  A 0.19 0.19 0.0 0 0 1011.18 299.70
  Q 1031.04 274.98 1058.07 242.32
  C 1064.98 233.98 1071.98 229.20 1082.54 228.51
  C 1092.31 227.87 1102.26 229.30 1109.00 237.38
  C 1116.00 245.76 1114.27 258.24 1107.44 266.43
  Q 1093.87 282.71 1070.23 310.77
  A 0.45 0.45 0.0 0 0 1070.22 311.34
  Q 1080.31 323.76 1107.03 356.98
  C 1112.07 363.24 1116.94 369.12 1117.69 376.04
  C 1118.53 383.74 1115.34 392.86 1108.27 397.03
  Q 1100.93 401.36 1093.27 401.70
  C 1079.61 402.31 1067.67 398.63 1059.42 388.06
  Q 1038.29 361.00 1011.20 327.42
  A 0.27 0.27 0.0 0 0 1010.72 327.59
  Q 1010.75 359.39 1010.74 371.25
  C 1010.72 386.13 1004.55 398.48 988.72 401.31
  C 975.25 403.72 958.79 400.41 953.50 386.24
  C 950.48 378.15 950.73 371.61 950.73 361.00
  Q 950.77 291.14 950.75 183.51
  Q 950.75 178.24 953.56 171.52
  C 957.76 161.49 968.41 156.09 979.00 155.94
  Q 985.92 155.85 989.20 156.50
  Q 1006.69 159.99 1010.02 177.25
  Q 1010.80 181.32 1010.77 190.52
  Q 1010.55 259.93 1010.84 299.58
  Z"
/>
<path fill="#1a1f5c" d="
  M 576.10 248.42
  C 598.69 229.27 630.14 225.27 658.73 228.88
  C 678.91 231.42 698.60 240.80 712.04 256.00
  C 723.92 269.43 730.64 288.32 731.86 306.50
  C 732.81 320.68 731.70 334.61 727.06 347.78
  Q 715.10 381.70 681.02 395.26
  C 660.45 403.44 635.09 404.02 613.39 399.63
  C 593.12 395.52 573.55 384.61 562.24 366.69
  Q 552.23 350.84 549.70 331.78
  C 545.77 302.12 552.21 268.66 576.10 248.42
  Z
  M 671.97 315.13
  C 672.02 303.54 670.96 293.16 664.39 283.61
  C 659.10 275.91 649.70 272.06 640.50 272.02
  C 631.31 271.98 621.88 275.75 616.52 283.40
  C 609.87 292.90 608.72 303.27 608.67 314.86
  C 608.62 326.44 609.67 336.82 616.25 346.38
  C 621.54 354.07 630.93 357.93 640.13 357.97
  C 649.33 358.01 658.76 354.24 664.12 346.59
  C 670.77 337.09 671.92 326.72 671.97 315.13
  Z"
/>
<path fill="#1a1f5c" d="
  M 837.37 227.74
  C 873.24 227.58 907.57 241.81 922.24 276.44
  C 927.37 288.54 929.32 301.10 929.38 314.68
  C 929.44 328.25 927.60 340.84 922.58 352.97
  C 908.22 387.74 874.02 402.27 838.14 402.43
  C 802.27 402.59 767.95 388.36 753.27 353.72
  C 748.15 341.63 746.19 329.07 746.13 315.49
  C 746.07 301.91 747.92 289.33 752.93 277.19
  C 767.30 242.43 801.50 227.90 837.37 227.74
  Z
  M 806.17 314.90
  C 806.15 326.52 807.24 336.92 813.86 346.47
  C 819.18 354.17 828.61 358.00 837.82 358.02
  C 847.04 358.03 856.48 354.23 861.83 346.55
  C 868.47 337.01 869.59 326.62 869.61 315.00
  C 869.63 303.39 868.54 292.99 861.92 283.43
  C 856.60 275.74 847.17 271.90 837.96 271.89
  C 828.74 271.87 819.30 275.68 813.95 283.36
  C 807.31 292.90 806.19 303.29 806.17 314.90
  Z"
/>
<path fill="#1a1f5c" d="
  M 1277.61 326.91
  A 0.41 0.41 0.0 0 0 1277.21 327.39
  C 1278.16 332.81 1279.81 338.78 1283.08 343.31
  C 1289.71 352.51 1300.59 357.08 1311.59 358.17
  Q 1318.42 358.85 1328.25 358.20
  C 1338.47 357.53 1347.23 354.24 1356.46 350.97
  C 1370.64 345.96 1384.16 351.95 1385.55 367.91
  Q 1386.86 382.94 1372.76 390.40
  Q 1365.94 394.02 1360.72 395.70
  C 1341.43 401.91 1321.73 403.38 1301.74 401.57
  Q 1277.71 399.38 1258.00 387.32
  C 1234.76 373.11 1221.97 348.65 1220.30 321.76
  C 1219.96 316.41 1219.92 306.69 1220.89 300.44
  C 1224.52 277.01 1236.26 256.63 1255.75 243.07
  C 1275.41 229.38 1301.67 225.12 1325.67 228.82
  C 1348.69 232.37 1368.63 245.84 1379.58 266.72
  Q 1391.20 288.87 1390.26 313.24
  Q 1389.92 322.01 1383.43 325.25
  Q 1380.12 326.89 1369.83 326.87
  Q 1297.24 326.73 1277.61 326.91
  Z
  M 1277.19 297.91
  A 0.48 0.48 0.0 0 0 1277.67 298.42
  L 1340.81 298.42
  A 0.38 0.37 -2.1 0 0 1341.19 298.02
  C 1340.54 287.42 1337.31 276.66 1328.29 270.84
  C 1313.53 261.34 1291.37 266.17 1282.31 281.68
  Q 1277.75 289.48 1277.19 297.91
  Z"
/>
<rect fill="#1a1f5c" x="-29.91" y="-86.93" transform="translate(1169.06,315.07) rotate(0.1)" width="59.82" height="173.86" rx="27.26"/>
<path fill="#ffffff" d="
  M 1277.19 297.91
  Q 1277.75 289.48 1282.31 281.68
  C 1291.37 266.17 1313.53 261.34 1328.29 270.84
  C 1337.31 276.66 1340.54 287.42 1341.19 298.02
  A 0.38 0.37 -2.1 0 1 1340.81 298.42
  L 1277.67 298.42
  A 0.48 0.48 0.0 0 1 1277.19 297.91
  Z"
/>
<path fill="#ffffff" d="
  M 671.97 315.13
  C 671.92 326.72 670.77 337.09 664.12 346.59
  C 658.76 354.24 649.33 358.01 640.13 357.97
  C 630.93 357.93 621.54 354.07 616.25 346.38
  C 609.67 336.82 608.62 326.44 608.67 314.86
  C 608.72 303.27 609.87 292.90 616.52 283.40
  C 621.88 275.75 631.31 271.98 640.50 272.02
  C 649.70 272.06 659.10 275.91 664.39 283.61
  C 670.96 293.16 672.02 303.54 671.97 315.13
  Z"
/>
<path fill="#ffffff" d="
  M 837.96 271.89
  C 847.17 271.90 856.60 275.74 861.92 283.43
  C 868.54 292.99 869.63 303.39 869.61 315.00
  C 869.59 326.62 868.47 337.01 861.83 346.55
  C 856.48 354.23 847.04 358.03 837.82 358.02
  C 828.61 358.00 819.18 354.17 813.86 346.47
  C 807.24 336.92 806.15 326.52 806.17 314.90
  C 806.19 303.29 807.31 292.90 813.95 283.36
  C 819.30 275.68 828.74 271.87 837.96 271.89
  Z"
/>
<path fill="#be3a2d" d="
  M 445.06 547.58
  A 0.52 0.52 0.0 0 1 445.37 548.51
  L 368.07 607.00
  A 0.60 0.59 -27.8 0 0 367.86 607.67
  L 397.99 700.62
  A 0.76 0.76 0.0 0 1 396.84 701.48
  L 315.78 646.03
  A 1.03 1.03 0.0 0 0 314.61 646.04
  Q 310.57 648.91 305.27 652.57
  Q 269.48 677.30 233.77 701.50
  Q 233.54 701.66 233.29 701.71
  A 0.35 0.34 -87.4 0 1 232.89 701.27
  L 262.68 607.70
  A 0.46 0.46 0.0 0 0 262.51 607.20
  L 185.42 548.50
  A 0.52 0.52 0.0 0 1 185.74 547.56
  L 281.72 547.56
  A 0.98 0.97 -80.3 0 0 282.64 546.90
  L 314.58 453.05
  A 0.59 0.59 0.0 0 1 315.70 453.05
  L 348.20 546.82
  A 1.13 1.12 -9.4 0 0 349.27 547.58
  L 445.06 547.58
  Z"
/>
<path fill="#9d8cc3" d="
  M 1290.00 547.46
  L 1385.80 547.46
  A 1.43 1.43 0.0 0 0 1387.16 546.47
  Q 1390.84 535.10 1397.56 516.02
  Q 1403.69 498.63 1404.94 494.63
  C 1407.97 484.99 1411.45 477.19 1414.72 466.93
  Q 1416.87 460.17 1419.87 453.25
  A 0.56 0.56 0.0 0 1 1420.91 453.29
  L 1453.31 546.78
  A 1.12 1.11 80.4 0 0 1454.36 547.53
  L 1549.85 547.53
  A 0.60 0.60 0.0 0 1 1550.21 548.60
  L 1473.06 606.97
  A 0.77 0.76 63.3 0 0 1472.79 607.81
  L 1502.98 700.92
  A 0.58 0.58 0.0 0 1 1502.20 701.63
  Q 1500.98 701.11 1500.50 700.76
  C 1494.03 696.24 1487.61 692.35 1480.89 687.64
  C 1470.54 680.39 1459.78 673.42 1449.47 665.78
  C 1443.80 661.58 1436.13 657.42 1431.91 654.07
  Q 1426.30 649.62 1420.75 645.96
  A 1.07 1.05 44.0 0 0 1419.57 645.97
  L 1337.99 701.64
  A 0.64 0.63 81.7 0 1 1337.03 700.92
  L 1366.54 608.20
  A 1.27 1.27 0.0 0 0 1366.10 606.81
  L 1289.62 548.58
  A 0.62 0.62 0.0 0 1 1290.00 547.46
  Z"
/>
<path fill="#1a1f5c" d="
  M 670.14 629.89
  A 0.33 0.33 0.0 0 0 670.68 629.78
  C 676.29 616.63 678.85 606.04 683.17 588.97
  Q 686.29 576.63 698.17 572.96
  C 709.66 569.41 723.57 573.27 727.32 585.88
  Q 728.85 591.03 727.19 600.65
  Q 721.43 633.91 704.66 662.27
  A 0.33 0.33 0.0 0 0 704.71 662.67
  Q 710.09 667.92 722.90 680.56
  Q 731.88 689.42 732.74 690.77
  Q 736.23 696.24 735.56 704.55
  C 734.72 715.01 724.85 721.19 715.24 721.91
  Q 707.83 722.46 702.55 721.41
  C 695.32 719.96 689.89 715.49 683.82 709.70
  Q 681.22 707.22 672.84 699.04
  A 0.74 0.73 -41.8 0 0 671.87 698.99
  Q 647.80 718.06 617.25 721.55
  C 599.98 723.52 581.69 722.68 564.75 717.49
  C 558.34 715.52 552.09 712.31 546.72 709.03
  C 530.23 698.96 520.19 683.13 517.65 663.72
  C 515.43 646.74 519.53 630.96 529.53 616.99
  C 537.13 606.39 550.11 597.41 562.14 591.22
  A 0.43 0.43 0.0 0 0 562.25 590.53
  C 551.17 579.44 543.29 565.50 541.17 550.29
  C 536.86 519.26 555.23 494.34 584.78 486.03
  C 624.38 474.88 676.17 487.27 675.13 538.51
  C 674.75 557.13 666.93 571.94 653.33 584.46
  Q 645.83 591.37 637.30 596.51
  A 0.70 0.69 51.6 0 0 637.18 597.60
  L 670.14 629.89
  Z
  M 608.78 568.18
  C 616.95 563.52 625.43 557.72 629.05 549.37
  C 633.98 537.98 631.16 524.43 617.94 521.25
  C 604.04 517.90 591.91 526.64 592.69 541.31
  C 593.26 552.17 599.52 560.81 607.55 568.05
  A 1.06 1.04 -38.5 0 0 608.78 568.18
  Z
  M 640.32 668.16
  A 0.38 0.37 -41.7 0 0 640.36 667.59
  L 592.40 620.61
  A 1.08 1.08 0.0 0 0 591.05 620.48
  C 580.30 627.54 573.69 639.60 574.75 652.89
  C 576.52 675.11 597.41 680.79 616.58 678.08
  Q 629.87 676.20 640.32 668.16
  Z"
/>
<path fill="#1a1f5c" d="
  M 959.50 591.30
  A 0.19 0.18 48.0 0 0 959.17 591.28
  Q 925.84 649.86 911.95 674.66
  C 906.02 685.24 893.98 688.93 882.55 685.69
  C 875.54 683.70 871.18 679.17 867.12 672.04
  C 858.64 657.15 845.20 633.42 821.70 591.72
  A 0.30 0.30 0.0 0 0 821.14 591.87
  Q 821.15 608.73 821.23 692.50
  C 821.25 708.26 814.87 720.52 798.01 722.22
  C 780.08 724.02 767.79 713.78 767.74 695.50
  Q 767.65 666.02 767.66 516.00
  Q 767.66 503.90 769.20 499.69
  C 773.46 488.11 782.98 483.21 795.15 482.63
  Q 814.99 481.68 825.43 500.27
  Q 858.13 558.44 891.11 618.64
  A 0.46 0.46 0.0 0 0 891.92 618.63
  Q 919.97 567.08 956.23 502.52
  Q 961.50 493.13 964.48 490.41
  C 972.88 482.76 985.84 480.86 996.53 484.22
  C 1010.05 488.47 1013.32 499.96 1013.31 512.80
  Q 1013.22 592.00 1013.17 695.89
  Q 1013.17 699.30 1011.58 704.77
  C 1009.18 713.02 1003.44 719.16 995.21 721.18
  C 976.01 725.87 959.70 716.34 959.71 695.25
  Q 959.73 596.24 959.73 592.50
  Q 959.72 591.79 959.50 591.30
  Z"
/>
<path fill="#1a1f5c" d="
  M 1107.54 672.02
  Q 1108.42 671.99 1187.46 672.01
  C 1195.24 672.01 1200.19 671.84 1205.93 675.76
  Q 1211.80 679.78 1213.31 686.35
  Q 1215.49 695.92 1213.27 704.06
  C 1210.68 713.56 1201.96 718.78 1192.50 718.78
  Q 1089.06 718.77 1086.35 718.79
  C 1078.29 718.85 1073.42 719.08 1067.16 716.85
  C 1061.12 714.70 1055.81 710.48 1053.27 704.19
  Q 1050.60 697.56 1050.59 693.12
  Q 1050.55 629.43 1050.56 517.50
  Q 1050.56 508.49 1052.28 503.59
  C 1056.25 492.34 1066.41 486.25 1077.77 485.74
  Q 1079.89 485.65 1185.00 485.71
  Q 1194.40 485.72 1195.97 485.95
  C 1205.08 487.28 1211.81 492.79 1213.69 502.07
  Q 1215.63 511.67 1212.46 520.67
  C 1210.62 525.91 1205.43 529.48 1200.03 531.39
  Q 1196.98 532.47 1190.01 532.48
  Q 1139.95 532.52 1107.10 532.49
  A 0.34 0.34 0.0 0 0 1106.75 532.83
  L 1106.75 576.41
  A 0.47 0.46 -0.0 0 0 1107.22 576.87
  Q 1168.12 576.78 1186.48 576.92
  C 1197.38 577.00 1205.12 584.35 1206.19 595.25
  C 1207.23 605.96 1204.92 616.50 1194.30 621.06
  Q 1190.24 622.81 1178.67 622.81
  Q 1127.09 622.83 1107.00 622.82
  A 0.27 0.26 -90.0 0 0 1106.74 623.09
  L 1106.77 671.27
  A 0.75 0.75 0.0 0 0 1107.54 672.02
  Z"
/>
<path fill="#ffffff" d="
  M 607.55 568.05
  C 599.52 560.81 593.26 552.17 592.69 541.31
  C 591.91 526.64 604.04 517.90 617.94 521.25
  C 631.16 524.43 633.98 537.98 629.05 549.37
  C 625.43 557.72 616.95 563.52 608.78 568.18
  A 1.06 1.04 -38.5 0 1 607.55 568.05
  Z"
/>
<path fill="#ffffff" d="
  M 640.32 668.16
  Q 629.87 676.20 616.58 678.08
  C 597.41 680.79 576.52 675.11 574.75 652.89
  C 573.69 639.60 580.30 627.54 591.05 620.48
  A 1.08 1.08 0.0 0 1 592.40 620.61
  L 640.36 667.59
  A 0.38 0.37 -41.7 0 1 640.32 668.16
  Z"
/>
</svg>
