<?xml version="1.0" encoding="UTF-8" standalone="no"?>
<!DOCTYPE svg PUBLIC "-//W3C//DTD SVG 1.1//EN" "http://www.w3.org/Graphics/SVG/1.1/DTD/svg11.dtd">
<svg xmlns="http://www.w3.org/2000/svg" version="1.1" viewBox="0.00 0.00 1695.00 928.00">
<g stroke-width="2.00" fill="none" stroke-linecap="butt">
<path stroke="#8687ac" d="
  M 1204.43 163.52
  C 1215.45 163.60 1225.65 160.31 1232.84 152.37
  C 1243.13 141.02 1244.93 121.36 1236.42 108.31
  C 1229.07 97.03 1217.43 93.86 1204.50 93.76
  C 1193.48 93.68 1183.28 96.97 1176.09 104.91
  C 1165.80 116.26 1164.00 135.92 1172.51 148.97
  C 1179.86 160.25 1191.50 163.43 1204.43 163.52"
/>
<path stroke="#8687ac" d="
  M 449.28 348.50
  C 447.35 335.83 437.23 323.14 423.98 321.19
  C 415.63 319.97 409.78 323.21 400.73 327.73
  C 394.24 330.97 385.56 334.69 377.33 336.86
  C 362.37 340.79 342.89 341.25 327.95 336.79
  Q 299.06 328.18 285.78 300.46
  C 282.68 293.98 280.87 286.64 279.65 280.12
  Q 275.79 259.46 277.95 237.88
  C 280.76 209.80 292.45 182.25 319.43 169.56
  Q 331.64 163.82 348.95 163.13
  C 366.12 162.44 385.34 165.62 400.20 174.33
  Q 406.40 177.96 411.40 179.63
  C 417.60 181.69 426.88 181.52 432.86 178.39
  C 441.41 173.91 447.16 164.74 449.65 155.70
  C 452.73 144.56 450.69 131.05 441.84 123.64
  Q 431.93 115.33 418.67 109.52
  Q 382.73 93.78 343.49 95.37
  Q 307.04 96.84 275.64 114.16
  C 228.27 140.29 203.12 190.20 200.78 243.22
  Q 199.63 269.33 203.72 291.61
  C 210.64 329.32 231.08 363.55 263.14 384.00
  Q 289.79 401.00 326.78 405.41
  Q 365.65 410.05 403.71 397.99
  C 411.38 395.56 420.43 391.55 428.03 387.04
  Q 435.92 382.35 440.03 378.08
  Q 451.89 365.74 449.28 348.50"
/>
<path stroke="#8687ac" d="
  M 1019.17 260.20
  Q 1019.05 235.35 1019.14 134.52
  C 1019.15 123.78 1018.13 115.72 1012.09 108.06
  C 1002.14 95.45 983.97 92.64 969.41 98.55
  C 958.93 102.82 952.47 111.77 950.13 122.74
  Q 949.29 126.67 949.30 136.83
  Q 949.41 256.86 949.34 372.50
  C 949.33 380.04 951.75 389.33 957.06 395.13
  C 965.72 404.60 979.18 407.98 991.18 405.56
  C 1007.93 402.19 1018.62 389.77 1018.97 372.68
  Q 1019.33 354.62 1018.99 317.17
  A 0.36 0.36 0.0 0 1 1019.63 316.94
  Q 1045.86 349.84 1074.36 384.78
  C 1077.46 388.59 1081.56 394.48 1085.27 397.45
  Q 1101.28 410.25 1120.29 404.05
  C 1143.08 396.62 1149.77 368.69 1134.90 350.59
  Q 1123.50 336.71 1078.86 285.62
  A 0.59 0.59 0.0 0 1 1078.89 284.81
  Q 1096.06 267.71 1125.39 238.39
  C 1134.22 229.55 1138.48 217.15 1134.18 205.25
  C 1127.97 188.09 1110.56 181.21 1093.52 185.79
  Q 1083.77 188.42 1077.49 195.27
  Q 1049.09 226.28 1019.63 260.37
  A 0.26 0.26 0.0 0 1 1019.17 260.20"
/>
<path stroke="#8687ac" d="
  M 459.56 295.29
  C 459.64 309.09 460.90 321.90 465.27 335.22
  Q 480.59 381.89 525.95 399.15
  C 547.38 407.31 572.35 408.75 594.51 404.91
  C 622.01 400.15 647.92 385.77 663.55 362.51
  C 677.23 342.15 683.13 319.60 682.98 295.00
  C 682.90 281.20 681.65 268.40 677.28 255.07
  Q 661.96 208.40 616.60 191.14
  C 595.17 182.98 570.20 181.54 548.04 185.38
  C 520.54 190.14 494.63 204.52 478.99 227.79
  C 465.31 248.15 459.42 270.69 459.56 295.29"
/>
<path stroke="#8687ac" d="
  M 700.96 295.28
  C 701.02 315.33 704.38 334.52 713.51 352.42
  C 733.41 391.47 774.23 407.97 816.73 406.78
  C 845.37 405.98 873.91 395.63 893.78 375.10
  C 914.62 353.57 923.08 324.79 923.00 295.00
  C 922.94 274.95 919.58 255.77 910.45 237.86
  C 890.55 198.81 849.73 182.31 807.23 183.50
  C 778.59 184.30 750.05 194.65 730.18 215.18
  C 709.34 236.71 700.88 265.49 700.96 295.28"
/>
<path stroke="#8687ac" d="
  M 1335.80 313.96
  A 0.48 0.48 0.0 0 1 1336.28 313.42
  Q 1384.14 313.44 1442.73 313.46
  Q 1452.97 313.46 1457.30 311.94
  C 1469.24 307.74 1474.88 296.43 1474.93 283.98
  C 1475.07 244.71 1455.01 208.35 1418.27 192.25
  C 1396.91 182.89 1371.11 181.57 1348.27 186.28
  C 1323.06 191.48 1300.64 205.23 1285.49 226.19
  C 1275.95 239.39 1268.97 257.26 1266.49 273.02
  C 1260.62 310.28 1268.73 351.96 1297.65 378.39
  C 1335.42 412.90 1392.46 413.08 1437.50 395.45
  Q 1450.07 390.53 1459.42 383.14
  Q 1463.26 380.11 1465.97 374.35
  C 1468.16 369.67 1467.94 364.78 1467.89 359.25
  C 1467.83 352.89 1465.45 346.30 1460.68 341.75
  C 1446.95 328.63 1431.87 337.73 1416.98 344.43
  Q 1401.06 351.60 1383.01 351.32
  C 1358.29 350.95 1339.32 339.18 1335.80 313.96"
/>
<path stroke="#8687ac" d="
  M 1238.3461 217.6114
  A 32.56 32.56 0.0 0 0 1205.8430 184.9946
  L 1200.7830 184.9858
  A 32.56 32.56 0.0 0 0 1168.1662 217.4889
  L 1167.8939 373.5086
  A 32.56 32.56 0.0 0 0 1200.3970 406.1254
  L 1205.4570 406.1342
  A 32.56 32.56 0.0 0 0 1238.0738 373.6311
  L 1238.3461 217.6114"
/>
<path stroke="#b59ed2" d="
  M 1446.24 658.97
  Q 1435.83 692.81 1412.92 765.94
  Q 1411.68 769.89 1414.21 772.39
  C 1415.84 773.99 1419.74 774.51 1421.34 773.35
  C 1429.57 767.44 1438.99 761.29 1448.35 754.63
  Q 1479.72 732.30 1512.88 709.29
  A 1.36 1.36 0.0 0 1 1514.45 709.30
  C 1546.14 732.09 1573.02 751.56 1602.63 772.27
  C 1605.53 774.31 1608.07 774.86 1610.83 772.87
  C 1612.53 771.65 1613.25 768.97 1612.72 767.07
  C 1603.71 735.25 1591.21 692.73 1581.76 658.82
  A 0.58 0.58 0.0 0 1 1581.95 658.22
  Q 1663.23 593.32 1664.47 592.49
  C 1667.30 590.57 1668.57 588.46 1667.28 585.18
  Q 1666.11 582.21 1662.49 582.04
  Q 1590.20 578.61 1555.49 577.20
  A 0.73 0.72 -8.2 0 1 1554.83 576.71
  Q 1534.99 519.12 1520.42 476.52
  Q 1519.16 472.83 1517.89 471.90
  C 1515.24 469.97 1510.76 471.14 1509.63 474.34
  Q 1499.47 503.11 1478.99 562.28
  Q 1474.44 575.42 1473.96 576.98
  A 0.33 0.33 0.0 0 1 1473.66 577.21
  Q 1472.81 577.25 1369.76 581.82
  Q 1365.74 582.00 1364.45 582.85
  C 1361.87 584.54 1360.79 588.87 1363.50 591.10
  Q 1401.59 622.36 1431.78 646.75
  Q 1437.84 651.64 1445.94 657.99
  A 0.92 0.90 -62.7 0 1 1446.24 658.97"
/>
<path stroke="#ff9e80" d="
  M 244.98 658.32
  Q 248.66 655.22 328.48 590.71
  C 330.85 588.80 329.92 584.70 327.90 582.95
  Q 326.80 582.00 323.34 581.84
  Q 260.52 578.90 217.81 577.12
  A 0.33 0.32 -7.5 0 1 217.51 576.90
  Q 198.31 522.38 182.39 475.75
  Q 181.53 473.23 180.71 472.46
  C 178.54 470.43 175.51 470.79 173.52 472.50
  Q 172.69 473.21 171.70 476.05
  Q 153.11 529.18 136.85 576.72
  A 0.69 0.68 8.1 0 1 136.23 577.18
  Q 37.64 581.59 32.06 581.76
  Q 28.87 581.86 27.51 582.64
  C 24.22 584.51 24.28 589.23 27.18 591.58
  Q 35.86 598.62 36.69 599.29
  Q 70.62 626.98 109.35 658.08
  A 0.90 0.90 0.0 0 1 109.65 659.05
  Q 99.16 694.03 77.47 766.99
  C 76.56 770.02 78.70 773.62 82.13 773.90
  Q 84.61 774.10 85.81 773.29
  C 105.15 760.19 142.39 732.76 176.61 709.09
  A 1.21 1.20 45.7 0 1 178.00 709.11
  C 186.55 715.30 193.41 719.87 201.18 725.47
  Q 233.04 748.45 267.31 772.33
  C 269.82 774.08 271.79 774.63 274.32 773.34
  C 276.94 772.01 277.57 769.36 276.75 766.49
  Q 266.71 731.40 256.52 697.79
  Q 255.73 695.17 244.85 658.76
  A 0.42 0.41 -29.1 0 1 244.98 658.32"
/>
<path stroke="#8687ac" d="
  M 466.88 625.81
  Q 457.80 631.38 455.47 632.96
  Q 434.29 647.29 420.95 668.07
  C 414.16 678.62 410.29 689.07 408.77 701.01
  Q 406.97 715.13 409.60 729.71
  C 414.89 759.05 435.98 780.46 463.46 790.46
  Q 495.14 801.99 529.45 797.14
  Q 565.79 792.01 592.60 767.16
  A 0.65 0.65 0.0 0 1 593.54 767.22
  Q 600.40 775.47 607.87 783.29
  C 619.45 795.45 635.62 802.89 651.69 795.11
  C 666.39 788.00 673.31 772.51 668.22 756.75
  Q 666.13 750.29 662.12 746.14
  Q 645.95 729.43 635.37 718.13
  A 0.84 0.83 -51.7 0 1 635.26 717.14
  C 643.96 702.44 651.28 686.89 656.23 670.49
  C 661.20 654.04 658.76 636.64 640.93 629.49
  C 629.97 625.09 616.79 629.88 609.78 638.78
  Q 605.05 644.79 603.02 651.52
  C 599.81 662.24 598.29 667.56 594.59 676.14
  A 0.42 0.42 0.0 0 1 593.89 676.26
  L 554.69 634.05
  A 0.32 0.32 0.0 0 1 554.75 633.56
  C 569.65 623.74 583.24 613.49 593.05 598.83
  C 603.90 582.63 607.38 559.50 603.53 540.65
  C 598.32 515.14 580.29 497.38 555.70 489.84
  Q 521.78 479.44 487.77 490.04
  C 443.98 503.69 428.78 548.30 443.62 589.16
  C 448.63 602.96 456.95 614.22 466.99 625.08
  A 0.48 0.47 -37.2 0 1 466.88 625.81"
/>
<path stroke="#8687ac" d="
  M 777.29 633.76
  A 0.34 0.34 0.0 0 1 777.91 633.72
  Q 794.84 667.06 829.16 733.34
  Q 833.66 742.03 841.75 746.25
  C 858.36 754.91 877.44 749.02 886.13 732.41
  C 910.38 686.05 924.85 658.72 936.74 634.54
  A 0.32 0.32 0.0 0 1 937.35 634.68
  Q 937.27 706.13 937.32 763.72
  C 937.33 780.61 947.07 793.41 963.67 796.84
  C 981.64 800.56 1000.40 791.64 1005.85 773.37
  Q 1007.37 768.29 1007.37 756.49
  Q 1007.35 554.02 1007.34 523.33
  C 1007.34 506.46 998.33 493.20 982.07 488.66
  C 968.62 484.90 952.79 488.11 942.70 498.12
  Q 939.35 501.44 934.82 510.09
  C 912.80 552.03 883.30 607.06 858.31 656.22
  A 0.35 0.35 0.0 0 1 857.69 656.22
  Q 838.18 618.99 780.86 508.59
  Q 777.54 502.20 775.35 499.67
  C 766.80 489.82 752.95 485.73 740.43 487.47
  Q 728.77 489.09 721.61 495.19
  C 713.36 502.22 709.43 513.19 709.43 524.00
  Q 709.43 564.55 709.45 762.50
  C 709.45 770.86 711.32 779.57 716.73 785.86
  C 726.99 797.82 744.86 800.74 758.88 794.17
  C 771.31 788.34 777.38 777.23 777.39 763.28
  Q 777.39 750.11 777.35 637.09
  C 777.35 635.88 777.07 634.38 777.29 633.76"
/>
<path stroke="#8687ac" d="
  M 1127.36 667.85
  Q 1181.10 667.72 1209.25 667.83
  Q 1222.20 667.88 1226.11 666.54
  C 1240.87 661.48 1246.42 648.59 1245.47 633.76
  C 1244.36 616.38 1233.38 605.99 1216.46 606.66
  Q 1216.43 606.66 1127.54 606.64
  A 0.48 0.47 -0.0 0 1 1127.06 606.17
  L 1127.06 550.70
  A 0.25 0.25 0.0 0 1 1127.31 550.45
  Q 1195.74 550.43 1221.36 550.47
  Q 1231.01 550.49 1235.46 548.99
  Q 1245.56 545.60 1250.76 536.81
  C 1254.69 530.17 1255.56 523.07 1254.89 514.85
  Q 1253.75 500.93 1243.86 493.49
  C 1239.23 490.01 1231.93 487.89 1226.29 487.89
  Q 1118.06 487.96 1092.33 487.88
  C 1075.37 487.83 1060.27 496.13 1056.62 513.86
  Q 1055.54 519.10 1055.55 522.75
  Q 1055.58 691.85 1055.56 755.36
  Q 1055.56 766.22 1056.89 771.02
  Q 1061.69 788.29 1079.21 793.35
  Q 1084.46 794.86 1095.43 794.72
  Q 1105.96 794.57 1220.28 794.72
  Q 1231.44 794.73 1235.11 793.47
  C 1249.02 788.66 1255.00 776.69 1255.10 762.51
  C 1255.19 748.69 1248.49 736.04 1234.52 732.06
  Q 1230.58 730.93 1221.87 730.96
  Q 1184.87 731.08 1127.44 731.05
  A 0.40 0.40 0.0 0 1 1127.04 730.65
  L 1127.04 668.16
  A 0.32 0.31 -0.0 0 1 1127.36 667.85"
/>
<path stroke="#8687ac" d="
  M 530.67 294.61
  C 530.57 305.95 532.01 317.78 537.54 327.94
  C 544.26 340.27 556.38 347.27 570.68 347.41
  C 584.97 347.54 597.22 340.77 604.17 328.57
  C 609.90 318.52 611.57 306.72 611.67 295.38
  C 611.78 284.04 610.34 272.21 604.80 262.05
  C 598.08 249.73 585.96 242.72 571.67 242.58
  C 557.38 242.45 545.12 249.23 538.17 261.42
  C 532.44 271.48 530.78 283.28 530.67 294.61"
/>
<path stroke="#8687ac" d="
  M 771.85 294.51
  C 771.73 305.82 773.14 317.62 778.65 327.76
  C 785.33 340.07 797.42 347.08 811.67 347.24
  C 825.93 347.39 838.16 340.65 845.12 328.50
  C 850.85 318.48 852.53 306.71 852.65 295.40
  C 852.78 284.09 851.36 272.29 845.85 262.15
  C 839.17 249.84 827.09 242.83 812.83 242.67
  C 798.57 242.51 786.34 249.26 779.38 261.41
  C 773.65 271.43 771.98 283.20 771.85 294.51"
/>
<path stroke="#8687ac" d="
  M 1336.80 273.04
  L 1410.63 273.04
  A 0.47 0.47 0.0 0 0 1411.10 272.58
  Q 1411.23 259.78 1404.20 249.50
  C 1393.75 234.23 1371.75 231.47 1356.61 239.57
  C 1344.59 245.99 1337.37 258.99 1336.14 272.33
  A 0.66 0.65 2.4 0 0 1336.80 273.04"
/>
<path stroke="#8687ac" d="
  M 520.04 596.94
  Q 520.10 596.95 520.18 596.95
  Q 520.34 596.95 520.36 596.94
  C 532.89 589.06 543.30 581.07 546.96 567.77
  C 551.27 552.12 543.32 537.48 526.46 535.71
  C 509.61 533.94 498.79 546.61 499.75 562.82
  C 500.58 576.59 509.10 586.56 519.72 596.87
  Q 519.74 596.89 519.90 596.92
  Q 519.97 596.94 520.04 596.94"
/>
<path stroke="#8687ac" d="
  M 556.30 726.63
  A 0.62 0.62 0.0 0 0 556.36 725.75
  L 503.08 666.00
  A 0.50 0.50 0.0 0 0 502.43 665.92
  Q 499.26 668.10 493.35 672.34
  C 479.03 682.60 471.03 700.06 475.55 717.39
  C 479.51 732.60 492.29 740.94 507.22 742.27
  Q 535.48 744.78 556.30 726.63"
/>
</g>
<path fill="#ffffff" d="
  M 1695.00 0.00
  L 1695.00 928.00
  L 0.00 928.00
  L 0.00 0.00
  L 1695.00 0.00
  Z
  M 1204.43 163.52
  C 1215.45 163.60 1225.65 160.31 1232.84 152.37
  C 1243.13 141.02 1244.93 121.36 1236.42 108.31
  C 1229.07 97.03 1217.43 93.86 1204.50 93.76
  C 1193.48 93.68 1183.28 96.97 1176.09 104.91
  C 1165.80 116.26 1164.00 135.92 1172.51 148.97
  C 1179.86 160.25 1191.50 163.43 1204.43 163.52
  Z
  M 449.28 348.50
  C 447.35 335.83 437.23 323.14 423.98 321.19
  C 415.63 319.97 409.78 323.21 400.73 327.73
  C 394.24 330.97 385.56 334.69 377.33 336.86
  C 362.37 340.79 342.89 341.25 327.95 336.79
  Q 299.06 328.18 285.78 300.46
  C 282.68 293.98 280.87 286.64 279.65 280.12
  Q 275.79 259.46 277.95 237.88
  C 280.76 209.80 292.45 182.25 319.43 169.56
  Q 331.64 163.82 348.95 163.13
  C 366.12 162.44 385.34 165.62 400.20 174.33
  Q 406.40 177.96 411.40 179.63
  C 417.60 181.69 426.88 181.52 432.86 178.39
  C 441.41 173.91 447.16 164.74 449.65 155.70
  C 452.73 144.56 450.69 131.05 441.84 123.64
  Q 431.93 115.33 418.67 109.52
  Q 382.73 93.78 343.49 95.37
  Q 307.04 96.84 275.64 114.16
  C 228.27 140.29 203.12 190.20 200.78 243.22
  Q 199.63 269.33 203.72 291.61
  C 210.64 329.32 231.08 363.55 263.14 384.00
  Q 289.79 401.00 326.78 405.41
  Q 365.65 410.05 403.71 397.99
  C 411.38 395.56 420.43 391.55 428.03 387.04
  Q 435.92 382.35 440.03 378.08
  Q 451.89 365.74 449.28 348.50
  Z
  M 1019.17 260.20
  Q 1019.05 235.35 1019.14 134.52
  C 1019.15 123.78 1018.13 115.72 1012.09 108.06
  C 1002.14 95.45 983.97 92.64 969.41 98.55
  C 958.93 102.82 952.47 111.77 950.13 122.74
  Q 949.29 126.67 949.30 136.83
  Q 949.41 256.86 949.34 372.50
  C 949.33 380.04 951.75 389.33 957.06 395.13
  C 965.72 404.60 979.18 407.98 991.18 405.56
  C 1007.93 402.19 1018.62 389.77 1018.97 372.68
  Q 1019.33 354.62 1018.99 317.17
  A 0.36 0.36 0.0 0 1 1019.63 316.94
  Q 1045.86 349.84 1074.36 384.78
  C 1077.46 388.59 1081.56 394.48 1085.27 397.45
  Q 1101.28 410.25 1120.29 404.05
  C 1143.08 396.62 1149.77 368.69 1134.90 350.59
  Q 1123.50 336.71 1078.86 285.62
  A 0.59 0.59 0.0 0 1 1078.89 284.81
  Q 1096.06 267.71 1125.39 238.39
  C 1134.22 229.55 1138.48 217.15 1134.18 205.25
  C 1127.97 188.09 1110.56 181.21 1093.52 185.79
  Q 1083.77 188.42 1077.49 195.27
  Q 1049.09 226.28 1019.63 260.37
  A 0.26 0.26 0.0 0 1 1019.17 260.20
  Z
  M 459.56 295.29
  C 459.64 309.09 460.90 321.90 465.27 335.22
  Q 480.59 381.89 525.95 399.15
  C 547.38 407.31 572.35 408.75 594.51 404.91
  C 622.01 400.15 647.92 385.77 663.55 362.51
  C 677.23 342.15 683.13 319.60 682.98 295.00
  C 682.90 281.20 681.65 268.40 677.28 255.07
  Q 661.96 208.40 616.60 191.14
  C 595.17 182.98 570.20 181.54 548.04 185.38
  C 520.54 190.14 494.63 204.52 478.99 227.79
  C 465.31 248.15 459.42 270.69 459.56 295.29
  Z
  M 700.96 295.28
  C 701.02 315.33 704.38 334.52 713.51 352.42
  C 733.41 391.47 774.23 407.97 816.73 406.78
  C 845.37 405.98 873.91 395.63 893.78 375.10
  C 914.62 353.57 923.08 324.79 923.00 295.00
  C 922.94 274.95 919.58 255.77 910.45 237.86
  C 890.55 198.81 849.73 182.31 807.23 183.50
  C 778.59 184.30 750.05 194.65 730.18 215.18
  C 709.34 236.71 700.88 265.49 700.96 295.28
  Z
  M 1335.80 313.96
  A 0.48 0.48 0.0 0 1 1336.28 313.42
  Q 1384.14 313.44 1442.73 313.46
  Q 1452.97 313.46 1457.30 311.94
  C 1469.24 307.74 1474.88 296.43 1474.93 283.98
  C 1475.07 244.71 1455.01 208.35 1418.27 192.25
  C 1396.91 182.89 1371.11 181.57 1348.27 186.28
  C 1323.06 191.48 1300.64 205.23 1285.49 226.19
  C 1275.95 239.39 1268.97 257.26 1266.49 273.02
  C 1260.62 310.28 1268.73 351.96 1297.65 378.39
  C 1335.42 412.90 1392.46 413.08 1437.50 395.45
  Q 1450.07 390.53 1459.42 383.14
  Q 1463.26 380.11 1465.97 374.35
  C 1468.16 369.67 1467.94 364.78 1467.89 359.25
  C 1467.83 352.89 1465.45 346.30 1460.68 341.75
  C 1446.95 328.63 1431.87 337.73 1416.98 344.43
  Q 1401.06 351.60 1383.01 351.32
  C 1358.29 350.95 1339.32 339.18 1335.80 313.96
  Z
  M 1238.3461 217.6114
  A 32.56 32.56 0.0 0 0 1205.8430 184.9946
  L 1200.7830 184.9858
  A 32.56 32.56 0.0 0 0 1168.1662 217.4889
  L 1167.8939 373.5086
  A 32.56 32.56 0.0 0 0 1200.3970 406.1254
  L 1205.4570 406.1342
  A 32.56 32.56 0.0 0 0 1238.0738 373.6311
  L 1238.3461 217.6114
  Z
  M 1446.24 658.97
  Q 1435.83 692.81 1412.92 765.94
  Q 1411.68 769.89 1414.21 772.39
  C 1415.84 773.99 1419.74 774.51 1421.34 773.35
  C 1429.57 767.44 1438.99 761.29 1448.35 754.63
  Q 1479.72 732.30 1512.88 709.29
  A 1.36 1.36 0.0 0 1 1514.45 709.30
  C 1546.14 732.09 1573.02 751.56 1602.63 772.27
  C 1605.53 774.31 1608.07 774.86 1610.83 772.87
  C 1612.53 771.65 1613.25 768.97 1612.72 767.07
  C 1603.71 735.25 1591.21 692.73 1581.76 658.82
  A 0.58 0.58 0.0 0 1 1581.95 658.22
  Q 1663.23 593.32 1664.47 592.49
  C 1667.30 590.57 1668.57 588.46 1667.28 585.18
  Q 1666.11 582.21 1662.49 582.04
  Q 1590.20 578.61 1555.49 577.20
  A 0.73 0.72 -8.2 0 1 1554.83 576.71
  Q 1534.99 519.12 1520.42 476.52
  Q 1519.16 472.83 1517.89 471.90
  C 1515.24 469.97 1510.76 471.14 1509.63 474.34
  Q 1499.47 503.11 1478.99 562.28
  Q 1474.44 575.42 1473.96 576.98
  A 0.33 0.33 0.0 0 1 1473.66 577.21
  Q 1472.81 577.25 1369.76 581.82
  Q 1365.74 582.00 1364.45 582.85
  C 1361.87 584.54 1360.79 588.87 1363.50 591.10
  Q 1401.59 622.36 1431.78 646.75
  Q 1437.84 651.64 1445.94 657.99
  A 0.92 0.90 -62.7 0 1 1446.24 658.97
  Z
  M 244.98 658.32
  Q 248.66 655.22 328.48 590.71
  C 330.85 588.80 329.92 584.70 327.90 582.95
  Q 326.80 582.00 323.34 581.84
  Q 260.52 578.90 217.81 577.12
  A 0.33 0.32 -7.5 0 1 217.51 576.90
  Q 198.31 522.38 182.39 475.75
  Q 181.53 473.23 180.71 472.46
  C 178.54 470.43 175.51 470.79 173.52 472.50
  Q 172.69 473.21 171.70 476.05
  Q 153.11 529.18 136.85 576.72
  A 0.69 0.68 8.1 0 1 136.23 577.18
  Q 37.64 581.59 32.06 581.76
  Q 28.87 581.86 27.51 582.64
  C 24.22 584.51 24.28 589.23 27.18 591.58
  Q 35.86 598.62 36.69 599.29
  Q 70.62 626.98 109.35 658.08
  A 0.90 0.90 0.0 0 1 109.65 659.05
  Q 99.16 694.03 77.47 766.99
  C 76.56 770.02 78.70 773.62 82.13 773.90
  Q 84.61 774.10 85.81 773.29
  C 105.15 760.19 142.39 732.76 176.61 709.09
  A 1.21 1.20 45.7 0 1 178.00 709.11
  C 186.55 715.30 193.41 719.87 201.18 725.47
  Q 233.04 748.45 267.31 772.33
  C 269.82 774.08 271.79 774.63 274.32 773.34
  C 276.94 772.01 277.57 769.36 276.75 766.49
  Q 266.71 731.40 256.52 697.79
  Q 255.73 695.17 244.85 658.76
  A 0.42 0.41 -29.1 0 1 244.98 658.32
  Z
  M 466.88 625.81
  Q 457.80 631.38 455.47 632.96
  Q 434.29 647.29 420.95 668.07
  C 414.16 678.62 410.29 689.07 408.77 701.01
  Q 406.97 715.13 409.60 729.71
  C 414.89 759.05 435.98 780.46 463.46 790.46
  Q 495.14 801.99 529.45 797.14
  Q 565.79 792.01 592.60 767.16
  A 0.65 0.65 0.0 0 1 593.54 767.22
  Q 600.40 775.47 607.87 783.29
  C 619.45 795.45 635.62 802.89 651.69 795.11
  C 666.39 788.00 673.31 772.51 668.22 756.75
  Q 666.13 750.29 662.12 746.14
  Q 645.95 729.43 635.37 718.13
  A 0.84 0.83 -51.7 0 1 635.26 717.14
  C 643.96 702.44 651.28 686.89 656.23 670.49
  C 661.20 654.04 658.76 636.64 640.93 629.49
  C 629.97 625.09 616.79 629.88 609.78 638.78
  Q 605.05 644.79 603.02 651.52
  C 599.81 662.24 598.29 667.56 594.59 676.14
  A 0.42 0.42 0.0 0 1 593.89 676.26
  L 554.69 634.05
  A 0.32 0.32 0.0 0 1 554.75 633.56
  C 569.65 623.74 583.24 613.49 593.05 598.83
  C 603.90 582.63 607.38 559.50 603.53 540.65
  C 598.32 515.14 580.29 497.38 555.70 489.84
  Q 521.78 479.44 487.77 490.04
  C 443.98 503.69 428.78 548.30 443.62 589.16
  C 448.63 602.96 456.95 614.22 466.99 625.08
  A 0.48 0.47 -37.2 0 1 466.88 625.81
  Z
  M 777.29 633.76
  A 0.34 0.34 0.0 0 1 777.91 633.72
  Q 794.84 667.06 829.16 733.34
  Q 833.66 742.03 841.75 746.25
  C 858.36 754.91 877.44 749.02 886.13 732.41
  C 910.38 686.05 924.85 658.72 936.74 634.54
  A 0.32 0.32 0.0 0 1 937.35 634.68
  Q 937.27 706.13 937.32 763.72
  C 937.33 780.61 947.07 793.41 963.67 796.84
  C 981.64 800.56 1000.40 791.64 1005.85 773.37
  Q 1007.37 768.29 1007.37 756.49
  Q 1007.35 554.02 1007.34 523.33
  C 1007.34 506.46 998.33 493.20 982.07 488.66
  C 968.62 484.90 952.79 488.11 942.70 498.12
  Q 939.35 501.44 934.82 510.09
  C 912.80 552.03 883.30 607.06 858.31 656.22
  A 0.35 0.35 0.0 0 1 857.69 656.22
  Q 838.18 618.99 780.86 508.59
  Q 777.54 502.20 775.35 499.67
  C 766.80 489.82 752.95 485.73 740.43 487.47
  Q 728.77 489.09 721.61 495.19
  C 713.36 502.22 709.43 513.19 709.43 524.00
  Q 709.43 564.55 709.45 762.50
  C 709.45 770.86 711.32 779.57 716.73 785.86
  C 726.99 797.82 744.86 800.74 758.88 794.17
  C 771.31 788.34 777.38 777.23 777.39 763.28
  Q 777.39 750.11 777.35 637.09
  C 777.35 635.88 777.07 634.38 777.29 633.76
  Z
  M 1127.36 667.85
  Q 1181.10 667.72 1209.25 667.83
  Q 1222.20 667.88 1226.11 666.54
  C 1240.87 661.48 1246.42 648.59 1245.47 633.76
  C 1244.36 616.38 1233.38 605.99 1216.46 606.66
  Q 1216.43 606.66 1127.54 606.64
  A 0.48 0.47 -0.0 0 1 1127.06 606.17
  L 1127.06 550.70
  A 0.25 0.25 0.0 0 1 1127.31 550.45
  Q 1195.74 550.43 1221.36 550.47
  Q 1231.01 550.49 1235.46 548.99
  Q 1245.56 545.60 1250.76 536.81
  C 1254.69 530.17 1255.56 523.07 1254.89 514.85
  Q 1253.75 500.93 1243.86 493.49
  C 1239.23 490.01 1231.93 487.89 1226.29 487.89
  Q 1118.06 487.96 1092.33 487.88
  C 1075.37 487.83 1060.27 496.13 1056.62 513.86
  Q 1055.54 519.10 1055.55 522.75
  Q 1055.58 691.85 1055.56 755.36
  Q 1055.56 766.22 1056.89 771.02
  Q 1061.69 788.29 1079.21 793.35
  Q 1084.46 794.86 1095.43 794.72
  Q 1105.96 794.57 1220.28 794.72
  Q 1231.44 794.73 1235.11 793.47
  C 1249.02 788.66 1255.00 776.69 1255.10 762.51
  C 1255.19 748.69 1248.49 736.04 1234.52 732.06
  Q 1230.58 730.93 1221.87 730.96
  Q 1184.87 731.08 1127.44 731.05
  A 0.40 0.40 0.0 0 1 1127.04 730.65
  L 1127.04 668.16
  A 0.32 0.31 -0.0 0 1 1127.36 667.85
  Z"
/>
<path fill="#0d0e58" d="
  M 1204.50 93.76
  C 1217.43 93.86 1229.07 97.03 1236.42 108.31
  C 1244.93 121.36 1243.13 141.02 1232.84 152.37
  C 1225.65 160.31 1215.45 163.60 1204.43 163.52
  C 1191.50 163.43 1179.86 160.25 1172.51 148.97
  C 1164.00 135.92 1165.80 116.26 1176.09 104.91
  C 1183.28 96.97 1193.48 93.68 1204.50 93.76
  Z"
/>
<path fill="#0d0e58" d="
  M 423.98 321.19
  C 437.23 323.14 447.35 335.83 449.28 348.50
  Q 451.89 365.74 440.03 378.08
  Q 435.92 382.35 428.03 387.04
  C 420.43 391.55 411.38 395.56 403.71 397.99
  Q 365.65 410.05 326.78 405.41
  Q 289.79 401.00 263.14 384.00
  C 231.08 363.55 210.64 329.32 203.72 291.61
  Q 199.63 269.33 200.78 243.22
  C 203.12 190.20 228.27 140.29 275.64 114.16
  Q 307.04 96.84 343.49 95.37
  Q 382.73 93.78 418.67 109.52
  Q 431.93 115.33 441.84 123.64
  C 450.69 131.05 452.73 144.56 449.65 155.70
  C 447.16 164.74 441.41 173.91 432.86 178.39
  C 426.88 181.52 417.60 181.69 411.40 179.63
  Q 406.40 177.96 400.20 174.33
  C 385.34 165.62 366.12 162.44 348.95 163.13
  Q 331.64 163.82 319.43 169.56
  C 292.45 182.25 280.76 209.80 277.95 237.88
  Q 275.79 259.46 279.65 280.12
  C 280.87 286.64 282.68 293.98 285.78 300.46
  Q 299.06 328.18 327.95 336.79
  C 342.89 341.25 362.37 340.79 377.33 336.86
  C 385.56 334.69 394.24 330.97 400.73 327.73
  C 409.78 323.21 415.63 319.97 423.98 321.19
  Z"
/>
<path fill="#0d0e58" d="
  M 1019.17 260.20
  A 0.26 0.26 0.0 0 0 1019.63 260.37
  Q 1049.09 226.28 1077.49 195.27
  Q 1083.77 188.42 1093.52 185.79
  C 1110.56 181.21 1127.97 188.09 1134.18 205.25
  C 1138.48 217.15 1134.22 229.55 1125.39 238.39
  Q 1096.06 267.71 1078.89 284.81
  A 0.59 0.59 0.0 0 0 1078.86 285.62
  Q 1123.50 336.71 1134.90 350.59
  C 1149.77 368.69 1143.08 396.62 1120.29 404.05
  Q 1101.28 410.25 1085.27 397.45
  C 1081.56 394.48 1077.46 388.59 1074.36 384.78
  Q 1045.86 349.84 1019.63 316.94
  A 0.36 0.36 0.0 0 0 1018.99 317.17
  Q 1019.33 354.62 1018.97 372.68
  C 1018.62 389.77 1007.93 402.19 991.18 405.56
  C 979.18 407.98 965.72 404.60 957.06 395.13
  C 951.75 389.33 949.33 380.04 949.34 372.50
  Q 949.41 256.86 949.30 136.83
  Q 949.29 126.67 950.13 122.74
  C 952.47 111.77 958.93 102.82 969.41 98.55
  C 983.97 92.64 1002.14 95.45 1012.09 108.06
  C 1018.13 115.72 1019.15 123.78 1019.14 134.52
  Q 1019.05 235.35 1019.17 260.20
  Z"
/>
<path fill="#0d0e58" d="
  M 682.98 295.00
  C 683.13 319.60 677.23 342.15 663.55 362.51
  C 647.92 385.77 622.01 400.15 594.51 404.91
  C 572.35 408.75 547.38 407.31 525.95 399.15
  Q 480.59 381.89 465.27 335.22
  C 460.90 321.90 459.64 309.09 459.56 295.29
  C 459.42 270.69 465.31 248.15 478.99 227.79
  C 494.63 204.52 520.54 190.14 548.04 185.38
  C 570.20 181.54 595.17 182.98 616.60 191.14
  Q 661.96 208.40 677.28 255.07
  C 681.65 268.40 682.90 281.20 682.98 295.00
  Z
  M 530.67 294.61
  C 530.57 305.95 532.01 317.78 537.54 327.94
  C 544.26 340.27 556.38 347.27 570.68 347.41
  C 584.97 347.54 597.22 340.77 604.17 328.57
  C 609.90 318.52 611.57 306.72 611.67 295.38
  C 611.78 284.04 610.34 272.21 604.80 262.05
  C 598.08 249.73 585.96 242.72 571.67 242.58
  C 557.38 242.45 545.12 249.23 538.17 261.42
  C 532.44 271.48 530.78 283.28 530.67 294.61
  Z"
/>
<path fill="#0d0e58" d="
  M 923.00 295.00
  C 923.08 324.79 914.62 353.57 893.78 375.10
  C 873.91 395.63 845.37 405.98 816.73 406.78
  C 774.23 407.97 733.41 391.47 713.51 352.42
  C 704.38 334.52 701.02 315.33 700.96 295.28
  C 700.88 265.49 709.34 236.71 730.18 215.18
  C 750.05 194.65 778.59 184.30 807.23 183.50
  C 849.73 182.31 890.55 198.81 910.45 237.86
  C 919.58 255.77 922.94 274.95 923.00 295.00
  Z
  M 771.85 294.51
  C 771.73 305.82 773.14 317.62 778.65 327.76
  C 785.33 340.07 797.42 347.08 811.67 347.24
  C 825.93 347.39 838.16 340.65 845.12 328.50
  C 850.85 318.48 852.53 306.71 852.65 295.40
  C 852.78 284.09 851.36 272.29 845.85 262.15
  C 839.17 249.84 827.09 242.83 812.83 242.67
  C 798.57 242.51 786.34 249.26 779.38 261.41
  C 773.65 271.43 771.98 283.20 771.85 294.51
  Z"
/>
<path fill="#0d0e58" d="
  M 1335.80 313.96
  C 1339.32 339.18 1358.29 350.95 1383.01 351.32
  Q 1401.06 351.60 1416.98 344.43
  C 1431.87 337.73 1446.95 328.63 1460.68 341.75
  C 1465.45 346.30 1467.83 352.89 1467.89 359.25
  C 1467.94 364.78 1468.16 369.67 1465.97 374.35
  Q 1463.26 380.11 1459.42 383.14
  Q 1450.07 390.53 1437.50 395.45
  C 1392.46 413.08 1335.42 412.90 1297.65 378.39
  C 1268.73 351.96 1260.62 310.28 1266.49 273.02
  C 1268.97 257.26 1275.95 239.39 1285.49 226.19
  C 1300.64 205.23 1323.06 191.48 1348.27 186.28
  C 1371.11 181.57 1396.91 182.89 1418.27 192.25
  C 1455.01 208.35 1475.07 244.71 1474.93 283.98
  C 1474.88 296.43 1469.24 307.74 1457.30 311.94
  Q 1452.97 313.46 1442.73 313.46
  Q 1384.14 313.44 1336.28 313.42
  A 0.48 0.48 0.0 0 0 1335.80 313.96
  Z
  M 1336.80 273.04
  L 1410.63 273.04
  A 0.47 0.47 0.0 0 0 1411.10 272.58
  Q 1411.23 259.78 1404.20 249.50
  C 1393.75 234.23 1371.75 231.47 1356.61 239.57
  C 1344.59 245.99 1337.37 258.99 1336.14 272.33
  A 0.66 0.65 2.4 0 0 1336.80 273.04
  Z"
/>
<rect fill="#0d0e58" x="-35.09" y="-110.57" transform="translate(1203.12,295.56) rotate(0.1)" width="70.18" height="221.14" rx="32.56"/>
<path fill="#ffffff" d="
  M 1336.14 272.33
  C 1337.37 258.99 1344.59 245.99 1356.61 239.57
  C 1371.75 231.47 1393.75 234.23 1404.20 249.50
  Q 1411.23 259.78 1411.10 272.58
  A 0.47 0.47 0.0 0 1 1410.63 273.04
  L 1336.80 273.04
  A 0.66 0.65 2.4 0 1 1336.14 272.33
  Z"
/>
<path fill="#ffffff" d="
  M 571.67 242.58
  C 585.96 242.72 598.08 249.73 604.80 262.05
  C 610.34 272.21 611.78 284.04 611.67 295.38
  C 611.57 306.72 609.90 318.52 604.17 328.57
  C 597.22 340.77 584.97 347.54 570.68 347.41
  C 556.38 347.27 544.26 340.27 537.54 327.94
  C 532.01 317.78 530.57 305.95 530.67 294.61
  C 530.78 283.28 532.44 271.48 538.17 261.42
  C 545.12 249.23 557.38 242.45 571.67 242.58
  Z"
/>
<path fill="#ffffff" d="
  M 771.85 294.51
  C 771.98 283.20 773.65 271.43 779.38 261.41
  C 786.34 249.26 798.57 242.51 812.83 242.67
  C 827.09 242.83 839.17 249.84 845.85 262.15
  C 851.36 272.29 852.78 284.09 852.65 295.40
  C 852.53 306.71 850.85 318.48 845.12 328.50
  C 838.16 340.65 825.93 347.39 811.67 347.24
  C 797.42 347.08 785.33 340.07 778.65 327.76
  C 773.14 317.62 771.73 305.82 771.85 294.51
  Z"
/>
<path fill="#6b3da4" d="
  M 1446.24 658.97
  A 0.92 0.90 -62.7 0 0 1445.94 657.99
  Q 1437.84 651.64 1431.78 646.75
  Q 1401.59 622.36 1363.50 591.10
  C 1360.79 588.87 1361.87 584.54 1364.45 582.85
  Q 1365.74 582.00 1369.76 581.82
  Q 1472.81 577.25 1473.66 577.21
  A 0.33 0.33 0.0 0 0 1473.96 576.98
  Q 1474.44 575.42 1478.99 562.28
  Q 1499.47 503.11 1509.63 474.34
  C 1510.76 471.14 1515.24 469.97 1517.89 471.90
  Q 1519.16 472.83 1520.42 476.52
  Q 1534.99 519.12 1554.83 576.71
  A 0.73 0.72 -8.2 0 0 1555.49 577.20
  Q 1590.20 578.61 1662.49 582.04
  Q 1666.11 582.21 1667.28 585.18
  C 1668.57 588.46 1667.30 590.57 1664.47 592.49
  Q 1663.23 593.32 1581.95 658.22
  A 0.58 0.58 0.0 0 0 1581.76 658.82
  C 1591.21 692.73 1603.71 735.25 1612.72 767.07
  C 1613.25 768.97 1612.53 771.65 1610.83 772.87
  C 1608.07 774.86 1605.53 774.31 1602.63 772.27
  C 1573.02 751.56 1546.14 732.09 1514.45 709.30
  A 1.36 1.36 0.0 0 0 1512.88 709.29
  Q 1479.72 732.30 1448.35 754.63
  C 1438.99 761.29 1429.57 767.44 1421.34 773.35
  C 1419.74 774.51 1415.84 773.99 1414.21 772.39
  Q 1411.68 769.89 1412.92 765.94
  Q 1435.83 692.81 1446.24 658.97
  Z"
/>
<path fill="#ff3d00" d="
  M 244.98 658.32
  A 0.42 0.41 -29.1 0 0 244.85 658.76
  Q 255.73 695.17 256.52 697.79
  Q 266.71 731.40 276.75 766.49
  C 277.57 769.36 276.94 772.01 274.32 773.34
  C 271.79 774.63 269.82 774.08 267.31 772.33
  Q 233.04 748.45 201.18 725.47
  C 193.41 719.87 186.55 715.30 178.00 709.11
  A 1.21 1.20 45.7 0 0 176.61 709.09
  C 142.39 732.76 105.15 760.19 85.81 773.29
  Q 84.61 774.10 82.13 773.90
  C 78.70 773.62 76.56 770.02 77.47 766.99
  Q 99.16 694.03 109.65 659.05
  A 0.90 0.90 0.0 0 0 109.35 658.08
  Q 70.62 626.98 36.69 599.29
  Q 35.86 598.62 27.18 591.58
  C 24.28 589.23 24.22 584.51 27.51 582.64
  Q 28.87 581.86 32.06 581.76
  Q 37.64 581.59 136.23 577.18
  A 0.69 0.68 8.1 0 0 136.85 576.72
  Q 153.11 529.18 171.70 476.05
  Q 172.69 473.21 173.52 472.50
  C 175.51 470.79 178.54 470.43 180.71 472.46
  Q 181.53 473.23 182.39 475.75
  Q 198.31 522.38 217.51 576.90
  A 0.33 0.32 -7.5 0 0 217.81 577.12
  Q 260.52 578.90 323.34 581.84
  Q 326.80 582.00 327.90 582.95
  C 329.92 584.70 330.85 588.80 328.48 590.71
  Q 248.66 655.22 244.98 658.32
  Z"
/>
<path fill="#0d0e58" d="
  M 466.99 625.08
  C 456.95 614.22 448.63 602.96 443.62 589.16
  C 428.78 548.30 443.98 503.69 487.77 490.04
  Q 521.78 479.44 555.70 489.84
  C 580.29 497.38 598.32 515.14 603.53 540.65
  C 607.38 559.50 603.90 582.63 593.05 598.83
  C 583.24 613.49 569.65 623.74 554.75 633.56
  A 0.32 0.32 0.0 0 0 554.69 634.05
  L 593.89 676.26
  A 0.42 0.42 0.0 0 0 594.59 676.14
  C 598.29 667.56 599.81 662.24 603.02 651.52
  Q 605.05 644.79 609.78 638.78
  C 616.79 629.88 629.97 625.09 640.93 629.49
  C 658.76 636.64 661.20 654.04 656.23 670.49
  C 651.28 686.89 643.96 702.44 635.26 717.14
  A 0.84 0.83 -51.7 0 0 635.37 718.13
  Q 645.95 729.43 662.12 746.14
  Q 666.13 750.29 668.22 756.75
  C 673.31 772.51 666.39 788.00 651.69 795.11
  C 635.62 802.89 619.45 795.45 607.87 783.29
  Q 600.40 775.47 593.54 767.22
  A 0.65 0.65 0.0 0 0 592.60 767.16
  Q 565.79 792.01 529.45 797.14
  Q 495.14 801.99 463.46 790.46
  C 435.98 780.46 414.89 759.05 409.60 729.71
  Q 406.97 715.13 408.77 701.01
  C 410.29 689.07 414.16 678.62 420.95 668.07
  Q 434.29 647.29 455.47 632.96
  Q 457.80 631.38 466.88 625.81
  A 0.48 0.47 -37.2 0 0 466.99 625.08
  Z
  M 520.04 596.94
  Q 520.10 596.95 520.18 596.95
  Q 520.34 596.95 520.36 596.94
  C 532.89 589.06 543.30 581.07 546.96 567.77
  C 551.27 552.12 543.32 537.48 526.46 535.71
  C 509.61 533.94 498.79 546.61 499.75 562.82
  C 500.58 576.59 509.10 586.56 519.72 596.87
  Q 519.74 596.89 519.90 596.92
  Q 519.97 596.94 520.04 596.94
  Z
  M 556.30 726.63
  A 0.62 0.62 0.0 0 0 556.36 725.75
  L 503.08 666.00
  A 0.50 0.50 0.0 0 0 502.43 665.92
  Q 499.26 668.10 493.35 672.34
  C 479.03 682.60 471.03 700.06 475.55 717.39
  C 479.51 732.60 492.29 740.94 507.22 742.27
  Q 535.48 744.78 556.30 726.63
  Z"
/>
<path fill="#0d0e58" d="
  M 777.29 633.76
  C 777.07 634.38 777.35 635.88 777.35 637.09
  Q 777.39 750.11 777.39 763.28
  C 777.38 777.23 771.31 788.34 758.88 794.17
  C 744.86 800.74 726.99 797.82 716.73 785.86
  C 711.32 779.57 709.45 770.86 709.45 762.50
  Q 709.43 564.55 709.43 524.00
  C 709.43 513.19 713.36 502.22 721.61 495.19
  Q 728.77 489.09 740.43 487.47
  C 752.95 485.73 766.80 489.82 775.35 499.67
  Q 777.54 502.20 780.86 508.59
  Q 838.18 618.99 857.69 656.22
  A 0.35 0.35 0.0 0 0 858.31 656.22
  C 883.30 607.06 912.80 552.03 934.82 510.09
  Q 939.35 501.44 942.70 498.12
  C 952.79 488.11 968.62 484.90 982.07 488.66
  C 998.33 493.20 1007.34 506.46 1007.34 523.33
  Q 1007.35 554.02 1007.37 756.49
  Q 1007.37 768.29 1005.85 773.37
  C 1000.40 791.64 981.64 800.56 963.67 796.84
  C 947.07 793.41 937.33 780.61 937.32 763.72
  Q 937.27 706.13 937.35 634.68
  A 0.32 0.32 0.0 0 0 936.74 634.54
  C 924.85 658.72 910.38 686.05 886.13 732.41
  C 877.44 749.02 858.36 754.91 841.75 746.25
  Q 833.66 742.03 829.16 733.34
  Q 794.84 667.06 777.91 633.72
  A 0.34 0.34 0.0 0 0 777.29 633.76
  Z"
/>
<path fill="#0d0e58" d="
  M 1127.36 667.85
  A 0.32 0.31 -0.0 0 0 1127.04 668.16
  L 1127.04 730.65
  A 0.40 0.40 0.0 0 0 1127.44 731.05
  Q 1184.87 731.08 1221.87 730.96
  Q 1230.58 730.93 1234.52 732.06
  C 1248.49 736.04 1255.19 748.69 1255.10 762.51
  C 1255.00 776.69 1249.02 788.66 1235.11 793.47
  Q 1231.44 794.73 1220.28 794.72
  Q 1105.96 794.57 1095.43 794.72
  Q 1084.46 794.86 1079.21 793.35
  Q 1061.69 788.29 1056.89 771.02
  Q 1055.56 766.22 1055.56 755.36
  Q 1055.58 691.85 1055.55 522.75
  Q 1055.54 519.10 1056.62 513.86
  C 1060.27 496.13 1075.37 487.83 1092.33 487.88
  Q 1118.06 487.96 1226.29 487.89
  C 1231.93 487.89 1239.23 490.01 1243.86 493.49
  Q 1253.75 500.93 1254.89 514.85
  C 1255.56 523.07 1254.69 530.17 1250.76 536.81
  Q 1245.56 545.60 1235.46 548.99
  Q 1231.01 550.49 1221.36 550.47
  Q 1195.74 550.43 1127.31 550.45
  A 0.25 0.25 0.0 0 0 1127.06 550.70
  L 1127.06 606.17
  A 0.48 0.47 0.0 0 0 1127.54 606.64
  Q 1216.43 606.66 1216.46 606.66
  C 1233.38 605.99 1244.36 616.38 1245.47 633.76
  C 1246.42 648.59 1240.87 661.48 1226.11 666.54
  Q 1222.20 667.88 1209.25 667.83
  Q 1181.10 667.72 1127.36 667.85
  Z"
/>
<path fill="#ffffff" d="
  M 526.46 535.71
  C 543.32 537.48 551.27 552.12 546.96 567.77
  C 543.30 581.07 532.89 589.06 520.36 596.94
  Q 520.34 596.95 520.18 596.95
  Q 520.10 596.95 520.04 596.94
  Q 519.97 596.94 519.90 596.92
  Q 519.74 596.89 519.72 596.87
  C 509.10 586.56 500.58 576.59 499.75 562.82
  C 498.79 546.61 509.61 533.94 526.46 535.71
  Z"
/>
<path fill="#ffffff" d="
  M 556.30 726.63
  Q 535.48 744.78 507.22 742.27
  C 492.29 740.94 479.51 732.60 475.55 717.39
  C 471.03 700.06 479.03 682.60 493.35 672.34
  Q 499.26 668.10 502.43 665.92
  A 0.50 0.50 0.0 0 1 503.08 666.00
  L 556.36 725.75
  A 0.62 0.62 0.0 0 1 556.30 726.63
  Z"
/>
</svg>
