<?xml version="1.0" encoding="UTF-8" standalone="no"?>
<!DOCTYPE svg PUBLIC "-//W3C//DTD SVG 1.1//EN" "http://www.w3.org/Graphics/SVG/1.1/DTD/svg11.dtd">
<svg xmlns="http://www.w3.org/2000/svg" version="1.1" viewBox="0.00 0.00 2100.00 749.00">
<rect fill="#1b2060" x="-25.59" y="-23.77" transform="translate(1014.41,303.07) rotate(-1.6)" width="51.18" height="47.54" rx="20.43"/>
<path fill="#9e8ec3" d="
  M 1926.44 284.64
  Q 1926.85 285.16 1927.17 286.07
  Q 1939.46 321.05 1950.69 356.17
  A 0.78 0.77 81.5 0 0 1951.41 356.71
  L 2024.81 357.43
  A 0.65 0.65 0.0 0 1 2025.20 358.60
  Q 2011.79 368.81 1982.03 391.70
  C 1976.68 395.82 1971.09 399.56 1966.29 403.16
  A 1.13 1.13 0.0 0 0 1965.90 404.40
  Q 1972.75 426.12 1989.01 476.50
  Q 1989.27 477.28 1989.08 477.88
  A 0.43 0.43 0.0 0 1 1988.43 478.11
  Q 1982.84 474.48 1978.55 471.34
  C 1969.93 465.02 1961.66 459.90 1954.30 454.23
  Q 1950.69 451.44 1943.06 446.01
  C 1935.19 440.40 1931.98 437.41 1926.30 434.12
  A 1.25 1.24 41.9 0 0 1924.95 434.19
  L 1863.54 478.08
  A 0.50 0.50 0.0 0 1 1862.77 477.53
  L 1885.08 404.65
  A 0.91 0.90 -62.9 0 0 1884.77 403.67
  L 1826.26 358.71
  A 0.61 0.61 0.0 0 1 1826.64 357.61
  C 1836.75 357.69 1847.94 356.93 1861.13 356.97
  Q 1886.33 357.03 1899.59 356.83
  A 1.47 1.46 -80.7 0 0 1900.94 355.85
  L 1925.39 284.82
  A 0.61 0.61 0.0 0 1 1926.44 284.64
  Z"
/>
<path fill="#c03d2e" d="
  M 195.86 284.57
  Q 196.01 284.57 196.15 284.64
  Q 196.24 284.69 196.31 284.87
  Q 211.15 327.85 220.38 356.30
  A 0.60 0.58 -8.3 0 0 220.93 356.70
  L 294.62 357.43
  A 0.56 0.56 0.0 0 1 294.96 358.44
  L 235.91 403.57
  A 0.54 0.54 0.0 0 0 235.72 404.16
  L 258.75 477.45
  A 0.47 0.47 0.0 0 1 258.03 477.98
  Q 222.05 452.11 196.22 433.54
  Q 196.09 433.44 195.73 433.44
  Q 195.37 433.44 195.24 433.53
  Q 169.38 452.07 133.36 477.88
  A 0.47 0.47 0.0 0 1 132.64 477.34
  L 155.79 404.09
  A 0.54 0.54 0.0 0 0 155.60 403.50
  L 96.63 358.27
  A 0.56 0.56 0.0 0 1 96.97 357.26
  L 170.66 356.66
  A 0.60 0.58 8.4 0 0 171.21 356.26
  Q 180.49 327.82 195.40 284.87
  Q 195.47 284.69 195.56 284.64
  Q 195.70 284.57 195.86 284.57
  Z"
/>
<path fill="#1b2060" d="
  M 1308.90 382.91
  A 0.15 0.14 53.3 0 0 1308.87 383.14
  L 1336.16 410.43
  A 0.56 0.56 0.0 0 0 1337.07 410.26
  Q 1342.34 398.27 1345.01 385.05
  Q 1346.95 375.40 1348.46 372.58
  C 1353.89 362.40 1368.03 359.66 1377.44 366.24
  C 1384.60 371.24 1384.75 379.60 1383.36 387.69
  Q 1380.77 402.75 1374.44 418.99
  Q 1370.58 428.92 1365.03 437.32
  A 0.66 0.64 38.7 0 0 1365.13 438.15
  Q 1372.59 445.29 1382.14 454.74
  Q 1387.79 460.33 1388.35 461.22
  C 1391.38 466.06 1391.62 472.23 1389.62 477.30
  C 1387.38 482.99 1380.13 486.59 1374.25 487.26
  C 1364.69 488.34 1356.89 485.88 1350.03 479.47
  Q 1344.51 474.31 1338.94 468.78
  A 0.87 0.87 0.0 0 0 1337.78 468.72
  C 1315.58 486.38 1287.05 491.45 1259.23 486.52
  C 1234.29 482.10 1213.06 466.42 1209.76 440.55
  Q 1207.03 419.13 1217.52 402.27
  C 1224.05 391.76 1235.30 384.17 1246.32 378.40
  A 0.58 0.58 0.0 0 0 1246.46 377.47
  C 1234.19 365.46 1227.18 349.07 1228.76 331.77
  C 1231.92 297.24 1264.68 283.46 1295.17 286.36
  Q 1308.16 287.59 1318.16 292.81
  C 1341.09 304.77 1346.60 331.72 1336.84 354.22
  C 1331.77 365.90 1320.13 376.46 1308.90 382.91
  Z
  M 1285.09 359.07
  Q 1290.39 355.76 1294.47 352.54
  C 1302.77 345.98 1307.42 334.37 1300.83 324.99
  C 1295.63 317.59 1284.08 317.73 1277.34 322.86
  Q 1274.62 324.93 1273.63 327.63
  C 1268.96 340.26 1275.46 350.86 1284.51 359.02
  A 0.49 0.49 0.0 0 0 1285.09 359.07
  Z
  M 1311.20 442.40
  L 1271.48 402.69
  A 0.50 0.49 49.8 0 0 1270.84 402.63
  C 1263.01 408.10 1257.33 416.04 1256.73 425.73
  C 1255.75 441.69 1266.33 450.10 1281.47 451.32
  Q 1297.00 452.57 1311.09 443.40
  A 0.65 0.64 -39.1 0 0 1311.20 442.40
  Z"
/>
<path fill="#1b2060" d="
  M 509.44 460.72
  C 508.57 466.96 505.26 471.66 499.93 474.97
  C 486.07 483.58 469.15 487.61 453.02 488.29
  C 434.37 489.06 416.40 487.51 398.87 480.40
  Q 370.00 468.68 355.69 441.32
  C 344.76 420.43 341.67 395.17 344.80 371.78
  C 348.86 341.42 365.74 312.38 394.01 298.33
  C 420.86 284.99 453.45 282.71 481.69 292.08
  C 490.96 295.15 500.26 299.62 506.23 307.49
  C 511.80 314.84 510.56 326.81 506.03 333.75
  C 501.61 340.51 495.56 344.04 487.56 342.75
  Q 485.40 342.40 479.45 339.49
  Q 462.93 331.41 442.53 332.87
  Q 414.43 334.88 403.27 357.32
  C 397.77 368.41 396.34 382.55 397.15 394.99
  C 398.72 419.01 408.59 438.94 434.57 443.28
  Q 459.77 447.49 482.57 436.62
  Q 492.92 431.69 501.43 439.07
  Q 511.27 447.60 509.44 460.72
  Z"
/>
<path fill="#1b2060" d="
  M 1575.26 379.08
  C 1574.56 379.80 1574.09 381.31 1573.30 382.65
  Q 1554.84 413.92 1537.52 445.32
  Q 1534.02 451.67 1531.11 453.99
  C 1523.18 460.30 1510.48 459.16 1503.39 452.68
  Q 1501.39 450.85 1494.62 438.96
  Q 1471.47 398.27 1460.87 379.49
  A 0.24 0.23 -59.8 0 0 1460.43 379.61
  Q 1460.40 418.09 1460.42 460.58
  Q 1460.43 469.72 1459.08 473.81
  C 1454.94 486.40 1442.43 489.91 1430.62 486.39
  C 1420.68 483.43 1416.80 473.45 1416.84 463.75
  Q 1417.00 416.63 1416.88 316.35
  Q 1416.87 305.54 1418.25 301.79
  C 1424.52 284.79 1450.33 283.88 1460.22 297.28
  Q 1463.67 301.95 1468.32 310.44
  Q 1491.35 352.55 1518.45 401.06
  A 0.39 0.39 0.0 0 0 1519.13 401.06
  Q 1541.41 360.73 1575.46 300.45
  C 1581.73 289.35 1594.88 285.33 1606.69 289.31
  C 1616.74 292.70 1620.32 301.21 1620.31 311.50
  Q 1620.26 424.63 1620.23 461.25
  Q 1620.22 468.80 1619.26 472.26
  C 1615.51 485.68 1603.27 489.57 1590.78 486.74
  C 1579.83 484.27 1575.63 473.50 1575.69 463.25
  Q 1575.86 428.85 1575.78 379.29
  A 0.30 0.30 0.0 0 0 1575.26 379.08
  Z"
/>
<path fill="#1b2060" d="
  M 888.08 427.71
  A 0.20 0.20 0.0 0 0 887.73 427.84
  Q 888.18 448.50 887.79 465.95
  C 887.60 474.55 882.27 483.43 873.51 486.29
  C 866.87 488.46 856.18 488.19 850.10 484.35
  C 842.47 479.55 840.13 471.21 840.15 462.50
  Q 840.31 375.40 840.18 318.61
  Q 840.15 307.26 841.81 302.65
  C 845.75 291.69 856.72 287.92 868.27 289.13
  C 881.93 290.56 888.08 300.22 888.11 313.27
  Q 888.23 370.14 887.95 404.58
  A 0.36 0.36 0.0 0 0 888.58 404.81
  Q 901.42 389.09 923.30 362.05
  Q 926.70 357.85 930.86 353.76
  A 6.36 6.00 -80.4 0 1 932.16 352.78
  Q 943.64 346.28 955.98 349.66
  Q 969.26 353.30 969.32 367.28
  Q 969.35 373.24 965.08 378.58
  Q 958.49 386.82 953.51 392.51
  C 947.54 399.34 942.00 406.90 935.28 414.26
  A 0.93 0.92 46.5 0 0 935.25 415.47
  Q 947.53 430.15 967.98 456.57
  C 972.12 461.92 974.31 468.42 971.65 475.19
  C 967.15 486.66 957.03 488.60 945.72 487.50
  C 939.44 486.90 931.49 483.45 927.39 478.11
  Q 908.73 453.83 888.08 427.71
  Z"
/>
<path fill="#1b2060" d="
  M 1699.21 329.61
  A 0.39 0.39 0.0 0 0 1698.82 330.00
  L 1698.46 365.88
  A 0.78 0.77 0.7 0 0 1699.23 366.66
  Q 1723.01 366.93 1763.74 366.72
  Q 1778.29 366.64 1782.09 380.17
  Q 1782.45 381.45 1782.50 386.39
  C 1782.58 394.16 1779.58 400.77 1772.27 403.88
  Q 1768.46 405.50 1758.53 405.45
  Q 1715.18 405.26 1699.22 405.44
  A 0.38 0.37 -0.8 0 0 1698.85 405.81
  L 1698.46 444.94
  A 0.87 0.87 0.0 0 0 1699.33 445.82
  Q 1744.57 445.83 1764.02 445.76
  Q 1775.26 445.72 1779.06 447.44
  C 1788.30 451.61 1789.54 460.95 1788.40 470.21
  C 1787.25 479.58 1778.92 485.43 1769.77 485.46
  Q 1693.43 485.75 1675.58 485.59
  Q 1658.02 485.42 1653.01 470.72
  Q 1651.46 466.17 1651.51 456.85
  Q 1651.68 425.26 1651.52 318.68
  Q 1651.51 309.41 1652.49 305.97
  C 1654.76 298.01 1660.78 292.66 1668.88 290.47
  Q 1672.26 289.55 1679.59 289.56
  Q 1722.81 289.61 1766.74 289.55
  Q 1774.60 289.54 1777.92 291.00
  C 1788.91 295.85 1790.82 307.77 1787.69 318.18
  C 1786.04 323.65 1781.77 326.79 1776.48 328.69
  Q 1773.85 329.64 1766.97 329.59
  Q 1728.24 329.33 1699.21 329.61
  Z"
/>
<path fill="#1b2060" d="
  M 587.43 348.09
  C 612.80 347.48 639.27 355.90 652.69 378.99
  C 659.48 390.68 662.44 402.98 662.77 416.44
  C 663.09 429.89 660.73 442.33 654.51 454.33
  C 642.22 478.04 616.19 487.73 590.81 488.35
  C 565.44 488.96 538.97 480.54 525.55 457.45
  C 518.76 445.76 515.80 433.45 515.47 420.00
  C 515.15 406.54 517.51 394.11 523.73 382.10
  C 536.02 358.39 562.05 348.70 587.43 348.09
  Z
  M 614.62 418.13
  C 614.63 409.48 613.79 401.38 609.18 394.12
  C 604.89 387.35 596.96 383.84 589.12 383.84
  C 581.28 383.83 573.35 387.31 569.03 394.08
  C 564.41 401.32 563.56 409.42 563.55 418.07
  C 563.54 426.72 564.38 434.82 568.98 442.08
  C 573.28 448.85 581.21 452.36 589.05 452.36
  C 596.88 452.37 604.82 448.89 609.13 442.12
  C 613.75 434.88 614.61 426.77 614.62 418.13
  Z"
/>
<path fill="#1b2060" d="
  M 822.05 419.56
  C 821.82 432.57 819.14 444.87 812.71 456.21
  C 794.21 488.81 749.55 494.30 717.27 483.18
  C 687.81 473.04 673.93 447.28 674.48 416.91
  C 675.02 386.55 689.82 361.31 719.62 352.22
  C 752.28 342.27 796.71 349.36 814.03 382.61
  C 820.05 394.16 822.28 406.56 822.05 419.56
  Z
  M 722.51 418.10
  C 722.48 426.79 723.31 434.94 727.93 442.23
  C 732.24 449.05 740.19 452.58 748.07 452.60
  C 755.94 452.62 763.92 449.13 768.27 442.34
  C 772.92 435.07 773.79 426.93 773.82 418.24
  C 773.84 409.55 773.01 401.41 768.39 394.11
  C 764.09 387.30 756.13 383.77 748.25 383.74
  C 740.38 383.72 732.40 387.21 728.05 394.00
  C 723.40 401.28 722.53 409.41 722.51 418.10
  Z"
/>
<path fill="#1b2060" d="
  M 1101.41 428.36
  Q 1101.52 429.65 1102.72 433.86
  C 1109.09 456.26 1140.52 455.50 1157.60 449.21
  C 1160.37 448.19 1166.51 445.71 1170.60 445.49
  C 1181.84 444.86 1188.31 453.29 1187.61 463.94
  Q 1186.98 473.51 1177.48 478.70
  Q 1168.20 483.76 1157.72 485.89
  C 1130.26 491.47 1096.54 488.85 1075.08 468.10
  C 1063.49 456.90 1056.73 440.39 1055.73 424.26
  Q 1055.48 420.27 1055.58 414.10
  C 1055.94 391.45 1068.86 368.25 1088.92 357.44
  C 1108.78 346.73 1134.27 344.77 1154.86 353.39
  C 1178.94 363.47 1190.17 387.98 1191.27 412.74
  C 1191.67 421.85 1188.71 427.66 1178.78 427.66
  Q 1103.08 427.63 1102.06 427.64
  A 0.66 0.66 0.0 0 0 1101.41 428.36
  Z
  M 1102.48 404.83
  L 1152.06 404.65
  A 0.34 0.34 0.0 0 0 1152.40 404.31
  L 1152.40 403.85
  A 24.66 23.97 89.8 0 0 1128.35 379.28
  L 1126.03 379.28
  A 24.66 23.97 89.8 0 0 1102.14 404.03
  L 1102.14 404.49
  A 0.34 0.34 0.0 0 0 1102.48 404.83
  Z"
/>
<rect fill="#1b2060" x="990.50" y="348.33" width="47.28" height="139.32" rx="21.86"/>
</svg>
